<?xml version="1.0" standalone="no"?>
<!DOCTYPE svg PUBLIC "-//W3C//DTD SVG 1.1//EN" "http://www.w3.org/Graphics/SVG/1.1/DTD/svg11.dtd" >
<svg>
<metadata>
Created by FontForge 20090914 at Mon Jun  3 12:44:43 2013
 By www-data
(C)2002 House Industries/Brand Design Co., Inc.
</metadata>
<defs>
<font id="ChaletComprime-CologneSixty" horiz-adv-x="200" >
  <font-face 
    font-family="ChaletComprime-CologneSixty"
    font-weight="400"
    font-stretch="normal"
    units-per-em="1000"
    panose-1="0 0 0 0 0 0 0 0 0 0"
    ascent="800"
    descent="-200"
    x-height="515"
    cap-height="652"
    bbox="-62 -195 863 874"
    underline-thickness="8"
    underline-position="-47"
    unicode-range="U+0020-U+FB02"
  />
<missing-glyph horiz-adv-x="500" 
 />
    <glyph glyph-name=".notdef" horiz-adv-x="500" 
 />
    <glyph glyph-name="space" unicode=" " horiz-adv-x="160" 
 />
    <glyph glyph-name="exclam" unicode="!" horiz-adv-x="195" 
d="M140 428v264h-85v-264l15 -251h55zM145 0v99h-95v-99h95z" />
    <glyph glyph-name="quotedbl" unicode="&#x22;" horiz-adv-x="267" 
d="M231 652h-80l14 -239h52zM116 652h-80l14 -239h52z" />
    <glyph glyph-name="numbersign" unicode="#" horiz-adv-x="435" 
d="M418 480h-72l19 130h-74l-19 -130h-70l19 130h-74l-18 -130h-73l-11 -75h72l-22 -155h-72l-12 -75h73l-19 -127h73l19 127h70l-18 -127h73l19 127h72l11 75h-72l22 155h72zM261 405l-22 -155h-70l21 155h71z" />
    <glyph glyph-name="dollar" unicode="$" horiz-adv-x="353" 
d="M313 197c0 32 -6.16699 57.499 -18.5 76.499s-29.833 37.5 -52.5 55.5l-79 63c-13.333 10.667 -22.166 20.167 -26.499 28.5s-6.5 19.5 -6.5 33.5c0 19.333 3.66699 34.333 11 45s18.666 16 33.999 16s26.833 -6.16699 34.5 -18.5s11.5 -29.166 11.5 -50.499v-33h85v38
c0 38.667 -8.66699 69.667 -26 93s-42 38 -74 44v74h-57v-73c-34 -5.33301 -59.667 -19.5 -77 -42.5s-26 -53.833 -26 -92.5c0 -32 6.16699 -57.167 18.5 -75.5s29.833 -36.5 52.5 -54.5l79 -63c13.333 -10.667 22.166 -20.5 26.499 -29.5s6.5 -20.5 6.5 -34.5
c0 -20.667 -5.16699 -36 -15.5 -46s-23.166 -15 -38.499 -15c-16 0 -28.833 5.66699 -38.5 17s-14.5 28.666 -14.5 51.999v40h-85v-45c0 -40 9.83301 -71.667 29.5 -95s47.167 -37.666 82.5 -42.999v-72h57v73c33.333 5.33301 59.5 19.5 78.5 42.5s28.5 53.5 28.5 91.5z" />
    <glyph glyph-name="percent" unicode="%" horiz-adv-x="568" 
d="M242 442v88c0 22.667 -1.83301 41.5 -5.5 56.5s-11.834 28.5 -24.501 40.5c-8.66699 8.66699 -19.667 15.5 -33 20.5s-27.666 7.5 -42.999 7.5s-29.833 -2.5 -43.5 -7.5s-24.834 -11.833 -33.501 -20.5c-12 -12 -20.167 -25.5 -24.5 -40.5s-6.5 -33.833 -6.5 -56.5v-88
c0 -22.667 2.16699 -41.5 6.5 -56.5s12.5 -28.5 24.5 -40.5c8.66699 -8.66699 19.834 -15.5 33.501 -20.5s28.167 -7.5 43.5 -7.5s29.666 2.5 42.999 7.5s24.333 11.833 33 20.5c12.667 12 20.834 25.5 24.501 40.5s5.5 33.833 5.5 56.5zM481 652h-71l-324 -652h71zM540 122
v88c0 22.667 -2 41.5 -6 56.5s-12.333 28.5 -25 40.5c-8.66699 8.66699 -19.667 15.5 -33 20.5s-27.666 7.5 -42.999 7.5s-29.666 -2.5 -42.999 -7.5s-24.333 -11.833 -33 -20.5c-12.667 -12 -21 -25.5 -25 -40.5s-6 -33.833 -6 -56.5v-88
c0 -22.667 2.16699 -41.5 6.5 -56.5s12.5 -28.5 24.5 -40.5c8.66699 -8.66699 19.667 -15.5 33 -20.5s27.666 -7.5 42.999 -7.5s29.666 2.5 42.999 7.5s24.333 11.833 33 20.5c12.667 12 21 25.5 25 40.5s6 33.833 6 56.5zM169 428c0 -16.667 -2.83301 -28.5 -8.5 -35.5
s-13.834 -10.5 -24.501 -10.5s-19 3.5 -25 10.5s-9 18.833 -9 35.5v116c0 16.667 3 28.5 9 35.5s14.333 10.5 25 10.5s18.834 -3.5 24.501 -10.5s8.5 -18.833 8.5 -35.5v-116zM467 108c0 -16.667 -3 -28.5 -9 -35.5s-14.333 -10.5 -25 -10.5s-19 3.5 -25 10.5
s-9 18.833 -9 35.5v116c0 16.667 3 28.5 9 35.5s14.333 10.5 25 10.5s19 -3.5 25 -10.5s9 -18.833 9 -35.5v-116z" />
    <glyph glyph-name="ampersand" unicode="&#x26;" horiz-adv-x="470" 
d="M449 0l-59.001 100c14 21.333 25.5 47.333 34.5 78s13.5 63 13.5 97v58h-85v-56c0 -15.333 -1.16699 -31.5 -3.5 -48.5s-5.83301 -30.5 -10.5 -40.5l-113 194c18.667 12.667 34.834 25.167 48.501 37.5s25 25.333 34 39s15.833 28.5 20.5 44.5s7 34.333 7 55
c0 42 -11 75.833 -33 101.5s-56 38.5 -102 38.5c-24.667 0 -45.834 -3.66699 -63.501 -11s-32.334 -17.166 -44.001 -29.499s-20.167 -27 -25.5 -44s-8 -35.167 -8 -54.5c0 -28.667 5.33301 -54.834 16 -78.501s24.334 -49.5 41.001 -77.5v-1
c-16 -11.333 -29.5 -22 -40.5 -32s-20 -21 -27 -33s-12 -25.5 -15 -40.5s-4.5 -32.833 -4.5 -53.5v-68c0 -122 57.667 -183 173 -183c28 0 51.833 3.5 71.5 10.5s38.834 17.833 57.501 32.5l21 -35h96zM251.999 549c0 -24.667 -4.50098 -44.665 -13.501 -59.998
s-24.833 -31 -47.5 -47l-11 18c-9.33301 16 -17.166 31.667 -23.499 47s-9.5 30.666 -9.5 45.999c0 21.333 4.5 38.166 13.5 50.499s22.167 18.5 39.5 18.5c18 0 31.167 -6.5 39.5 -19.5s12.5 -30.833 12.5 -53.5zM291.998 104.002
c-9.33301 -9.33301 -21.332 -17.167 -35.999 -23.5s-29.334 -9.5 -44.001 -9.5c-64.667 0 -97 36 -97 108v64c0 24 2.66699 43.5 8 58.5s15.333 28.167 30 39.5z" />
    <glyph glyph-name="quotesingle" unicode="'" horiz-adv-x="152" 
d="M116 652h-80l14 -239h52z" />
    <glyph glyph-name="parenleft" unicode="(" horiz-adv-x="251" 
d="M249 -116c-21.333 28 -40 59.667 -56 95s-29.167 72.333 -39.5 111s-18 78.167 -23 118.5s-7.5 79.5 -7.5 117.5s2.5 77.167 7.5 117.5s12.667 79.833 23 118.5s23.5 75.667 39.5 111s34.667 67 56 95h-75c-23.333 -24 -43.666 -53.5 -60.999 -88.5
s-31.666 -72.5 -42.999 -112.5s-20 -80.833 -26 -122.5s-9 -81.167 -9 -118.5s3 -76.833 9 -118.5s14.667 -82.5 26 -122.5s25.666 -77.5 42.999 -112.5s37.666 -64.5 60.999 -88.5h75z" />
    <glyph glyph-name="parenright" unicode=")" horiz-adv-x="251" 
d="M215 326c0 37.333 -3 76.833 -9 118.5s-14.667 82.5 -26 122.5s-25.833 77.5 -43.5 112.5s-37.834 64.5 -60.501 88.5h-75c21.333 -28 40 -59.667 56 -95s29.167 -72.333 39.5 -111s18 -78.167 23 -118.5s7.5 -79.5 7.5 -117.5s-2.5 -77.167 -7.5 -117.5
s-12.667 -79.833 -23 -118.5s-23.5 -75.667 -39.5 -111s-34.667 -67 -56 -95h75c22.667 24 42.834 53.5 60.501 88.5s32.167 72.5 43.5 112.5s20 80.833 26 122.5s9 81.167 9 118.5z" />
    <glyph glyph-name="asterisk" unicode="*" horiz-adv-x="335" 
d="M315 530v57l-101 -2l53 87l-51 28l-49 -88l-48 88l-50 -28l52 -87l-101 2v-58l101 2l-52 -86l50 -29l49 89l48 -89l51 29l-53 86z" />
    <glyph glyph-name="plus" unicode="+" horiz-adv-x="362" 
d="M334 235v82h-112v172h-82v-172h-112v-82h112v-172h82v172h112z" />
    <glyph glyph-name="comma" unicode="," horiz-adv-x="168" 
d="M134 -13l0.000976562 116h-100v-103h54v-13c0 -35.333 -15.667 -55.333 -47 -60v-45c11.333 0.666992 22.666 3.5 33.999 8.5s21.333 11.667 30 20s15.667 18.833 21 31.5s8 27.667 8 45z" />
    <glyph glyph-name="hyphen" unicode="-" horiz-adv-x="214" 
d="M186 235v82h-158v-82h158z" />
    <glyph glyph-name="hyphen" unicode="&#xad;" horiz-adv-x="214" 
d="M186 235v82h-158v-82h158z" />
    <glyph glyph-name="period" unicode="." horiz-adv-x="168" 
d="M134 0v103h-100v-103h100z" />
    <glyph glyph-name="slash" unicode="/" horiz-adv-x="239" 
d="M242 692h-70l-172 -692h69z" />
    <glyph glyph-name="zero" unicode="0" horiz-adv-x="350" 
d="M315 133v386c0 44.667 -12.5 79.334 -37.5 104.001s-59.167 37 -102.5 37s-77.5 -12.333 -102.5 -37s-37.5 -59.334 -37.5 -104.001v-386c0 -44.667 12.5 -79.334 37.5 -104.001s59.167 -37 102.5 -37s77.5 12.333 102.5 37s37.5 59.334 37.5 104.001zM229 137
c0 -23.333 -5 -40.333 -15 -51s-23 -16 -39 -16s-29 5.33301 -39 16s-15 27.667 -15 51v378c0 23.333 5 40.333 15 51s23 16 39 16s29 -5.33301 39 -16s15 -27.667 15 -51v-378z" />
    <glyph glyph-name="one" unicode="1" horiz-adv-x="210" 
d="M165 0v652h-73c-2.66699 -25.333 -12.667 -43.5 -30 -54.5s-37 -17.167 -59 -18.5v-65h75v-514h87z" />
    <glyph glyph-name="two" unicode="2" horiz-adv-x="317" 
d="M295 0l0.000976562 78h-184v55c0 24.667 6.66699 46 20 64s33.333 38.667 60 62c26 22 48.833 46.333 68.5 73s29.5 59 29.5 97v90c0 44.667 -11.667 79.334 -35 104.001s-56 37 -98 37s-74.333 -12.333 -97 -37s-34 -59.334 -34 -104.001v-73h85v69
c0 44.667 15.333 67 46 67c31.333 0 47 -22.333 47 -67v-82c0 -24.667 -6.83301 -46 -20.5 -64s-33.834 -38.667 -60.501 -62c-26 -22 -48.5 -46.333 -67.5 -73s-28.5 -59 -28.5 -97v-137h269z" />
    <glyph glyph-name="three" unicode="3" horiz-adv-x="327" 
d="M299 133v100c0 25.333 -5.33301 47.833 -16 67.5s-25 33.167 -43 40.5c18 7.33301 32 21 42 41s15 42.667 15 68v69c0 44.667 -12 79.334 -36 104.001s-57.667 37 -101 37s-76.833 -12.333 -100.5 -37s-35.5 -59.334 -35.5 -104.001v-73h85v69
c0 23.333 4.5 40.333 13.5 51s21.5 16 37.5 16s28.5 -5.33301 37.5 -16s13.5 -27.667 13.5 -51v-76c0 -20.667 -4.33301 -37 -13 -49s-22 -18 -40 -18h-47v-72h49c18 0 31.333 -6 40 -18s13 -28.333 13 -49v-96c0 -23.333 -4.83301 -40.333 -14.5 -51s-22.5 -16 -38.5 -16
s-28.5 5.33301 -37.5 16s-13.5 27.667 -13.5 51v69h-85v-73c0 -44.667 11.833 -79.334 35.5 -104.001s57.167 -37 100.5 -37s77.333 12.333 102 37s37 59.334 37 104.001z" />
    <glyph glyph-name="four" unicode="4" horiz-adv-x="348" 
d="M332 121v74h-51v457h-110l-162 -464v-67h186v-121h86v121h51zM207 565c0 -1.33301 -1 -7.16895 -3 -17.502s-4 -25.166 -6 -44.499s-3 -38.666 -3 -57.999v-250h-103z" />
    <glyph glyph-name="five" unicode="5" horiz-adv-x="336" 
d="M305 133l-0.000976562 172c0 18 -1.83301 35 -5.5 51s-9.66699 30 -18 42s-19.333 21.5 -33 28.5s-30.5 10.5 -50.5 10.5c-15.333 0 -29.833 -3.16699 -43.5 -9.5s-25.167 -15.166 -34.5 -26.499l10 172h164v79h-245l-15 -353h86v4c0 19.333 4.83301 34.166 14.5 44.499
s21.834 15.5 36.501 15.5c32 0 48 -20 48 -60v-166c0 -23.333 -5 -40.333 -15 -51s-23 -16 -39 -16s-28.667 5.33301 -38 16s-14 27.667 -14 51v69h-85v-73c0 -44.667 12 -79.334 36 -104.001s57.667 -37 101 -37s77.5 12.333 102.5 37s37.5 59.334 37.5 104.001z" />
    <glyph glyph-name="six" unicode="6" horiz-adv-x="346" 
d="M311 133l0.00195312 126.001c0 45.333 -9.66699 80.166 -29 104.499s-49.333 36.5 -90 36.5c-14.667 0 -29 -3.83301 -43 -11.5s-23.333 -17.167 -28 -28.5v155c0 23.333 4.5 40.333 13.5 51s21.5 16 37.5 16s28.5 -5.33301 37.5 -16s13.5 -27.667 13.5 -51v-69h85v73
c0 44.667 -11.833 79.334 -35.5 104.001s-57.167 37 -100.5 37s-77 -12.333 -101 -37s-36 -59.334 -36 -104.001v-386c0 -44.667 12.167 -79.334 36.5 -104.001s58.166 -37 101.499 -37s77.166 12.333 101.499 37s36.5 59.334 36.5 104.001zM225.002 137.001
c0 -23.333 -4.66699 -40.333 -14 -51s-22 -16 -38 -16s-28.667 5.33301 -38 16s-14 27.667 -14 51v118c0 23.333 4.66699 40.5 14 51.5s22 16.5 38 16.5s28.667 -5.5 38 -16.5s14 -28.167 14 -51.5v-118z" />
    <glyph glyph-name="seven" unicode="7" horiz-adv-x="303" 
d="M290 575l0.00195312 77.002h-275v-79h197c-24.667 -32 -46.334 -69.667 -65.001 -113s-34.334 -89.833 -47.001 -139.5s-22 -101.834 -28 -156.501s-8.33301 -109.334 -7 -164.001h88c-2 58 -0.333008 114.5 5 169.5s13.833 107.167 25.5 156.5s26.5 95 44.5 137
s38.667 79.333 62 112z" />
    <glyph glyph-name="eight" unicode="8" horiz-adv-x="347" 
d="M318 133v97c0 25.333 -5.16699 47.833 -15.5 67.5s-24.5 33.167 -42.5 40.5c15.333 9.33301 28.166 22.666 38.499 39.999s15.5 36.666 15.5 57.999v83c0 44.667 -12.667 79.334 -38 104.001s-59.666 37 -102.999 37s-77.666 -12.333 -102.999 -37
s-38 -59.334 -38 -104.001v-83c0 -21.333 5.16699 -40.666 15.5 -57.999s23.166 -30.666 38.499 -39.999c-18 -7.33301 -32.167 -20.833 -42.5 -40.5s-15.5 -42.167 -15.5 -67.5v-97c0 -46 13.167 -81 39.5 -105s61.5 -36 105.5 -36c44.667 0 80 12 106 36s39 59 39 105z
M228 432c0 -23.333 -5.16699 -40.333 -15.5 -51s-23.5 -16 -39.5 -16s-29.167 5.33301 -39.5 16s-15.5 27.667 -15.5 51v83c0 23.333 5.16699 40.333 15.5 51s23.5 16 39.5 16s29.167 -5.33301 39.5 -16s15.5 -27.667 15.5 -51v-83zM232 137
c0 -23.333 -5.83301 -40.333 -17.5 -51s-25.5 -16 -41.5 -16s-29.833 5.33301 -41.5 16s-17.5 27.667 -17.5 51v97c0 23.333 5.83301 40.333 17.5 51s25.5 16 41.5 16s29.833 -5.33301 41.5 -16s17.5 -27.667 17.5 -51v-97z" />
    <glyph glyph-name="nine" unicode="9" horiz-adv-x="346" 
d="M311 133l-0.00195312 385.999c0 44.667 -12.167 79.334 -36.5 104.001s-58.166 37 -101.499 37s-77.166 -12.333 -101.499 -37s-36.5 -59.334 -36.5 -104.001v-126c0 -45.333 9.66699 -80.166 29 -104.499s49.333 -36.5 90 -36.5c14.667 0 29 3.83301 43 11.5
s23.333 17.167 28 28.5v-155c0 -23.333 -4.5 -40.333 -13.5 -51s-21.5 -16 -37.5 -16s-28.5 5.33301 -37.5 16s-13.5 27.667 -13.5 51v47h-85v-51c0 -44.667 11.833 -79.334 35.5 -104.001s57.167 -37 100.5 -37s77 12.333 101 37s36 59.334 36 104.001zM224.998 396.999
c0 -23.333 -4.66699 -40.5 -14 -51.5s-22 -16.5 -38 -16.5s-28.667 5.5 -38 16.5s-14 28.167 -14 51.5v118c0 23.333 4.66699 40.333 14 51s22 16 38 16s28.667 -5.33301 38 -16s14 -27.667 14 -51v-118z" />
    <glyph glyph-name="colon" unicode=":" horiz-adv-x="168" 
d="M134 394v103h-100v-103h100zM134 0v103h-100v-103h100z" />
    <glyph glyph-name="semicolon" unicode=";" horiz-adv-x="168" 
d="M134 394v103h-100v-103h100zM134 -13l0.000976562 116h-100v-103h54v-13c0 -35.333 -15.667 -55.333 -47 -60v-45c11.333 0.666992 22.666 3.5 33.999 8.5s21.333 11.667 30 20s15.667 18.833 21 31.5s8 27.667 8 45z" />
    <glyph glyph-name="semicolon" unicode="&#x37e;" horiz-adv-x="168" 
d="M134 394v103h-100v-103h100zM134 -13l0.000976562 116h-100v-103h54v-13c0 -35.333 -15.667 -55.333 -47 -60v-45c11.333 0.666992 22.666 3.5 33.999 8.5s21.333 11.667 30 20s15.667 18.833 21 31.5s8 27.667 8 45z" />
    <glyph glyph-name="less" unicode="&#x3c;" horiz-adv-x="349" 
d="M315 55v96l-194 124v1l194 124v96l-277 -176v-88z" />
    <glyph glyph-name="equal" unicode="=" horiz-adv-x="378" 
d="M342 334v82h-306v-82h306zM342 138v82h-306v-82h306z" />
    <glyph glyph-name="greater" unicode="&#x3e;" horiz-adv-x="349" 
d="M311 232v88l-277 176v-96l194 -124v-1l-194 -124v-96z" />
    <glyph glyph-name="question" unicode="?" horiz-adv-x="323" 
d="M295 544c0 44 -10.667 80.501 -32 109.501s-56 43.5 -104 43.5c-44 0 -77.5 -12.167 -100.5 -36.5s-34.5 -58.833 -34.5 -103.5v-74h85v69c0 23.333 4.5 40.333 13.5 51s21.167 16 36.5 16c17.333 0 30.166 -6.83301 38.499 -20.5s12.5 -31.834 12.5 -54.501
c0 -31.333 -2.83301 -57.833 -8.5 -79.5s-18.5 -43.167 -38.5 -64.5c-23.333 -25.333 -39.166 -53 -47.499 -83s-12.5 -66 -12.5 -108v-42h81v34c0 26.667 2.5 52.5 7.5 77.5s18.5 48.833 40.5 71.5c24 24.667 40.5 52.667 49.5 84s13.5 68 13.5 110zM192 0.000976562v99
h-96v-99h96z" />
    <glyph glyph-name="at" unicode="@" horiz-adv-x="579" 
d="M539 219v174.003c0 34 -5.33301 66.5 -16 97.5s-26.334 58 -47.001 81s-46.667 41.333 -78 55s-67.333 20.5 -108 20.5c-41.333 0 -77.5 -6.83301 -108.5 -20.5s-57 -32 -78 -55s-36.833 -50 -47.5 -81s-16 -63.5 -16 -97.5v-188c0 -36.667 5.33301 -70.5 16 -101.5
s26.5 -57.833 47.5 -80.5s47 -40.334 78 -53.001s67.167 -19 108.5 -19h110v59h-110c-30 0 -56.333 4.83301 -79 14.5s-41.667 23 -57 40s-27 37.333 -35 61s-12 49.5 -12 77.5v190c0 22 3.83301 44.333 11.5 67s19.167 43.167 34.5 61.5s34.5 33.333 57.5 45
s49.5 17.5 79.5 17.5s56.5 -5.83301 79.5 -17.5s42 -26.667 57 -45s26.333 -38.833 34 -61.5s11.5 -45 11.5 -67v-174c0 -20.667 -5.5 -37.667 -16.5 -51s-23.167 -20 -36.5 -20h-19v227c0 18 -2 35 -6 51s-10.333 30 -19 42s-20.167 21.333 -34.5 28s-31.833 10 -52.5 10
c-21.333 0 -39.166 -3.33301 -53.499 -10s-26 -15.834 -35 -27.501s-15.333 -25.5 -19 -41.5s-5.5 -33.333 -5.5 -52v-177c0 -36.667 9.66699 -64.167 29 -82.5s47.333 -27.5 84 -27.5h129c16 0 31.333 3.16699 46 9.5s27.667 15.166 39 26.499s20.333 25 27 41s10 34 10 54
zM323 148.003h-35c-12 0 -21 4.33301 -27 13s-9 22.667 -9 42v180c0 19.333 3 33.333 9 42s15 13 27 13s20.833 -4.33301 26.5 -13s8.5 -22.667 8.5 -42v-235z" />
    <glyph glyph-name="A" unicode="A" horiz-adv-x="312" 
d="M312 0l-99 652h-113l-100 -652h87l21 167h96l21 -167h87zM193 238h-74l24 196l4.5 39c1.66699 14.667 3 28.5 4 41.5l2.5 33l1 13.5h2l1 -13l2.5 -32.5c1 -13 2.33301 -26.833 4 -41.5l4.5 -40z" />
    <glyph glyph-name="B" unicode="B" horiz-adv-x="348" 
d="M322 142v95.002c0 25.333 -5.16699 47.166 -15.5 65.499s-24.5 31.166 -42.5 38.499c15.333 9.33301 27.333 22 36 38s13 34.667 13 56v75c0 42.667 -10.833 77 -32.5 103s-57.167 39 -106.5 39h-129v-652h138c49.333 -0 84.833 12.833 106.5 38.5
s32.5 60.167 32.5 103.5zM227 439.002c0 -20.667 -4.33301 -37 -13 -49s-22 -18 -40 -18h-45v201h45c18 0 31.333 -6 40 -18s13 -28.333 13 -49v-67zM236 144.002c0 -20.667 -4.33301 -37 -13 -49s-22 -18 -40 -18h-54v223h54c18 0 31.333 -6 40 -18s13 -28.333 13 -49v-89z
" />
    <glyph glyph-name="C" unicode="C" horiz-adv-x="331" 
d="M306 132v74h-86v-69c0 -44.667 -16.333 -67 -49 -67c-33.333 0 -50 22.333 -50 67v378c0 44.667 16.667 67 50 67c32.667 0 49 -22.333 49 -67v-69h86v74c0 44.667 -11.667 79.167 -35 103.5s-56.666 36.5 -99.999 36.5s-76.833 -12.167 -100.5 -36.5
s-35.5 -58.833 -35.5 -103.5v-388c0 -44.667 11.833 -79.167 35.5 -103.5s57.167 -36.5 100.5 -36.5s76.666 12.167 99.999 36.5s35 58.833 35 103.5z" />
    <glyph glyph-name="D" unicode="D" horiz-adv-x="360" 
d="M325 142v368c0 42.667 -10.833 77 -32.5 103s-57.167 39 -106.5 39h-141v-652h141c49.333 -0 84.833 12.833 106.5 38.5s32.5 60.167 32.5 103.5zM239 144c0 -20.667 -4.33301 -37 -13 -49s-22 -18 -40 -18h-55v496h55c18 0 31.333 -6 40 -18s13 -28.333 13 -49v-362z
" />
    <glyph glyph-name="E" unicode="E" horiz-adv-x="275" 
d="M259 0v77h-128v219h113v80h-113v197h128v79h-214v-652h214z" />
    <glyph glyph-name="F" unicode="F" horiz-adv-x="264" 
d="M259 573v79h-214v-652h86v283h113v80h-113v210h128z" />
    <glyph glyph-name="G" unicode="G" horiz-adv-x="339" 
d="M308 0v333.001h-137v-75h51v-121c0 -23.333 -4.5 -40.166 -13.5 -50.499s-21.5 -15.5 -37.5 -15.5s-28.333 5.16699 -37 15.5s-13 27.166 -13 50.499v378c0 23.333 4.5 40.333 13.5 51s21.5 16 37.5 16c33.333 0 50 -22.333 50 -67v-69h86v74
c0 44.667 -11.833 79.167 -35.5 103.5s-57.167 36.5 -100.5 36.5s-77 -12.167 -101 -36.5s-36 -58.833 -36 -103.5v-388c0 -44.667 10.833 -79.167 32.5 -103.5s53.167 -36.5 94.5 -36.5c20 0 38 4.16699 54 12.5s27.667 19.166 35 32.499l13 -37h44z" />
    <glyph glyph-name="H" unicode="H" horiz-adv-x="374" 
d="M329 0v652h-86v-273h-112v273h-86v-652h86v300h112v-300h86z" />
    <glyph glyph-name="I" unicode="I" horiz-adv-x="176" 
d="M131 0v652h-86v-652h86z" />
    <glyph glyph-name="J" unicode="J" horiz-adv-x="319" 
d="M283 132v520h-86v-515c0 -23.333 -4.5 -40.333 -13.5 -51s-21.5 -16 -37.5 -16c-33.333 0 -50 22.333 -50 67v69h-86v-74c0 -44.667 11.833 -79.167 35.5 -103.5s57.167 -36.5 100.5 -36.5s77 12.167 101 36.5s36 58.833 36 103.5z" />
    <glyph glyph-name="K" unicode="K" horiz-adv-x="335" 
d="M336 0l-116 408l110 244h-87l-82 -183c-6 -13.333 -11.167 -27.5 -15.5 -42.5s-7.5 -26.833 -9.5 -35.5s-3 -13.667 -3 -15h-2v276h-86v-652h86v254l33 74l85 -328h87z" />
    <glyph glyph-name="L" unicode="L" horiz-adv-x="265" 
d="M259 0v77h-128v575h-86v-652h214z" />
    <glyph glyph-name="M" unicode="M" horiz-adv-x="514" 
d="M469 0l0.00390625 652.001h-132l-68 -411c-2 -12 -3.66699 -25.333 -5 -40s-2.5 -28.5 -3.5 -41.5s-1.66699 -23.833 -2 -32.5l-0.5 -13h-2l-0.5 13c-0.333008 8.66699 -1 19.5 -2 32.5s-2.16699 26.833 -3.5 41.5s-3 28 -5 40l-68 411h-132v-652h82v425
c0 16 -0.333008 32.167 -1 48.5s-1.33398 31.333 -2.00098 45s-1.33398 24.834 -2.00098 33.501l-1 13h2l91 -565h86l91 565h2l-1 -13c-0.666992 -8.66699 -1.33398 -19.834 -2.00098 -33.501s-1.33398 -28.834 -2.00098 -45.501s-1 -32.667 -1 -48v-425h82z" />
    <glyph glyph-name="N" unicode="N" horiz-adv-x="389" 
d="M344 0v651.999h-79v-350c0 -15.333 0.5 -31.166 1.5 -47.499s2.16699 -31.333 3.5 -45s2.5 -25 3.5 -34l1.5 -13.5h-2l-132 490h-96v-652h79v350c0 16 -0.5 32.167 -1.5 48.5s-2.33301 31.333 -4 45l-4 33.5l-1.5 13h2l132 -490h97z" />
    <glyph glyph-name="O" unicode="O" horiz-adv-x="350" 
d="M315 132v388c0 44.667 -12.5 79.167 -37.5 103.5s-59.167 36.5 -102.5 36.5s-77.5 -12.167 -102.5 -36.5s-37.5 -58.833 -37.5 -103.5v-388c0 -44.667 12.5 -79.167 37.5 -103.5s59.167 -36.5 102.5 -36.5s77.5 12.167 102.5 36.5s37.5 58.833 37.5 103.5zM229 137
c0 -23.333 -5 -40.333 -15 -51s-23 -16 -39 -16s-29 5.33301 -39 16s-15 27.667 -15 51v378c0 23.333 5 40.333 15 51s23 16 39 16s29 -5.33301 39 -16s15 -27.667 15 -51v-378z" />
    <glyph glyph-name="P" unicode="P" horiz-adv-x="341" 
d="M321 396v114c0 42.667 -10.833 77 -32.5 103s-57.167 39 -106.5 39h-137v-652h86v254h51c49.333 0 84.833 12.833 106.5 38.5s32.5 60.167 32.5 103.5zM235 400c0 -20.667 -4.33301 -37 -13 -49s-22 -18 -40 -18h-51v240h51c18 0 31.333 -6 40 -18s13 -28.333 13 -49
v-106z" />
    <glyph glyph-name="Q" unicode="Q" horiz-adv-x="357" 
d="M325 -85l-65 102.001c17.333 12.667 30.833 28.167 40.5 46.5s14.5 41.166 14.5 68.499v388c0 44.667 -12.5 79.167 -37.5 103.5s-59.167 36.5 -102.5 36.5s-77.5 -12.167 -102.5 -36.5s-37.5 -58.833 -37.5 -103.5v-388c0 -44.667 12.5 -79.167 37.5 -103.5
s59.167 -36.5 102.5 -36.5h12l50 -77h88zM229 137.001c0 -23.333 -5 -40.333 -15 -51s-23 -16 -39 -16s-29 5.33301 -39 16s-15 27.667 -15 51v378c0 23.333 5 40.333 15 51s23 16 39 16s29 -5.33301 39 -16s15 -27.667 15 -51v-378z" />
    <glyph glyph-name="R" unicode="R" horiz-adv-x="353" 
d="M330 0c-4 10 -6.99902 21.502 -8.99902 34.502s-3 26.167 -3 39.5v150c0 25.333 -4.5 47.166 -13.5 65.499s-22.5 31.166 -40.5 38.499c15.333 8 28.166 20 38.499 36s15.5 35.333 15.5 58v88c0 42.667 -10.833 77 -32.5 103s-57.167 39 -106.5 39h-134v-652h86v287h48
c18 0 31.333 -6 40 -18s13 -28.333 13 -49v-155c0 -16 0.666992 -28.5 2 -37.5s4 -18.167 8 -27.5h88zM232.001 426.002c0 -20.667 -4.33301 -37 -13 -49s-22 -18 -40 -18h-48v214h48c18 0 31.333 -6 40 -18s13 -28.333 13 -49v-80z" />
    <glyph glyph-name="S" unicode="S" horiz-adv-x="327" 
d="M305 145c0 32 -4.16992 59.668 -12.5029 83.001s-23.833 47.333 -46.5 72l-97 105c-16 17.333 -26.667 33.5 -32 48.5s-8 32.833 -8 53.5c0 22.667 4.5 40.834 13.5 54.501s22.5 20.5 40.5 20.5c16 0 28.833 -5.33301 38.5 -16s14.5 -27.667 14.5 -51v-69h85v74
c0 44.667 -12 79.167 -36 103.5s-58 36.5 -102 36.5c-24 0 -44.833 -3.83301 -62.5 -11.5s-32.167 -18.334 -43.5 -32.001s-19.666 -29.834 -24.999 -48.501s-8 -39 -8 -61c0 -16 0.833008 -30.833 2.5 -44.5s4.83398 -26.667 9.50098 -39s10.834 -24.333 18.501 -36
s17.167 -23.5 28.5 -35.5l97 -105c16 -17.333 26.667 -33.5 32 -48.5s8 -32.833 8 -53.5c0 -50 -20 -75 -60 -75c-15.333 0 -28.333 5.33301 -39 16s-16 27.667 -16 51v69h-85v-74c0 -46 12.833 -80.833 38.5 -104.5s59.5 -35.5 101.5 -35.5c48.667 0 85 14.5 109 43.5
s36 65.5 36 109.5z" />
    <glyph glyph-name="T" unicode="T" horiz-adv-x="276" 
d="M275 573v79h-274v-79h94v-573h86v573h94z" />
    <glyph glyph-name="U" unicode="U" horiz-adv-x="354" 
d="M315 132l0.00195312 520h-86v-515c0 -23.333 -4.66699 -40.333 -14 -51s-22 -16 -38 -16s-28.667 5.33301 -38 16s-14 27.667 -14 51v515h-86v-520c0 -44.667 12.167 -79.167 36.5 -103.5s58.166 -36.5 101.499 -36.5s77.166 12.167 101.499 36.5s36.5 58.833 36.5 103.5
z" />
    <glyph glyph-name="V" unicode="V" horiz-adv-x="318" 
d="M315 652h-85l-58 -408c-2 -11.333 -3.66699 -24.333 -5 -39s-2.5 -28.5 -3.5 -41.5l-2.5 -33l-1 -13.5h-2l-1 13l-2.5 32.5c-1 13 -2.16699 26.833 -3.5 41.5s-3 28 -5 40l-58 408h-85l106 -652h99z" />
    <glyph glyph-name="W" unicode="W" horiz-adv-x="500" 
d="M497 652h-87l-41 -409c-1.33301 -11.333 -2.5 -24.333 -3.5 -39s-2 -28.5 -3 -41.5l-2.5 -33l-1 -13.5h-2l-1 13l-2.5 32.5c-1 13 -2.33301 26.833 -4 41.5l-4.5 40l-52 409h-86l-52 -409l-4.5 -39c-1.66699 -14.667 -3 -28.5 -4 -41.5l-2.5 -33l-1 -13.5h-2l-1 13
l-2.5 32.5c-1 13 -2 26.833 -3 41.5s-2.16699 28 -3.5 40l-41 409h-87l83 -652h106l44 359l4.5 40c1.66699 14.667 3 28.5 4 41.5l2.5 32.5l1 13h2l1 -13l2.5 -32.5c1 -13 2.33301 -26.833 4 -41.5l4.5 -40l45 -359h106z" />
    <glyph glyph-name="X" unicode="X" horiz-adv-x="308" 
d="M305 0l-102 329.001l101 323h-88l-44 -163c-6 -22.667 -10.167 -42.334 -12.5 -59.001l-3.5 -25h-2l-3 25.5c-2 17 -6 36.5 -12 58.5l-45 163h-89l100 -325l-102 -327h88l47 163c6.66699 22 11 41.333 13 58l3 25h2l3 -24.5c2 -16.333 6 -35.833 12 -58.5l43 -163h91z
" />
    <glyph glyph-name="Y" unicode="Y" horiz-adv-x="308" 
d="M310 652h-90.002l-49 -214c-3.33301 -14.667 -6.16602 -29.5 -8.49902 -44.5l-5.5 -35c-1.33301 -8.33301 -2 -13.166 -2 -14.499h-2c0 1.33301 -0.5 6.16602 -1.5 14.499s-2.66699 20 -5 35s-5.16602 29.833 -8.49902 44.5l-50 214h-90l112 -403v-249h86v249z" />
    <glyph glyph-name="Z" unicode="Z" horiz-adv-x="289" 
d="M278 0v77h-185l176 497v78h-256v-79h167l-175 -499v-74h273z" />
    <glyph glyph-name="bracketleft" unicode="[" horiz-adv-x="262" 
d="M250 -116v63h-97v757h97v64h-182v-884h182z" />
    <glyph glyph-name="backslash" unicode="\" horiz-adv-x="239" 
d="M239 0l-172 692h-70l173 -692h69z" />
    <glyph glyph-name="bracketright" unicode="]" horiz-adv-x="262" 
d="M194 -116v884h-182v-64h97v-757h-97v-63h182z" />
    <glyph glyph-name="asciicircum" unicode="^" horiz-adv-x="361" 
d="M336 375l-112 277h-86l-113 -277h89l65 187h3l65 -187h89z" />
    <glyph glyph-name="underscore" unicode="_" horiz-adv-x="350" 
d="M350 -151v82h-350v-82h350z" />
    <glyph glyph-name="grave" unicode="`" horiz-adv-x="417" 
d="M290 603l-87 132h-102l123 -132h66z" />
    <glyph glyph-name="a" unicode="a" horiz-adv-x="316" 
d="M292 0c-2 9.33301 -3.66602 18.667 -4.99902 28s-2.16602 20.833 -2.49902 34.5s-0.666016 30.167 -0.999023 49.5s-0.5 43.333 -0.5 72v174c0 22.667 -1.66699 44.167 -5 64.5s-9.5 37.833 -18.5 52.5s-21.667 26.334 -38 35.001s-37.833 13 -64.5 13
c-43.333 0 -76.5 -13 -99.5 -39s-34.5 -61.333 -34.5 -106v-30h85v30c0 46 15.667 69 47 69c16.667 0 28 -6 34 -18s9 -26.667 9 -44c0 -14 -1.66699 -26 -5 -36s-8.33301 -18.833 -15 -26.5s-15.334 -14.667 -26.001 -21s-23 -13.166 -37 -20.499
c-18 -9.33301 -33.833 -19 -47.5 -29s-24.834 -21.333 -33.501 -34s-15.167 -27.167 -19.5 -43.5s-6.5 -34.833 -6.5 -55.5c0 -22 3 -40.833 9 -56.5s14 -28.834 24 -39.501s21.167 -18.5 33.5 -23.5s25.166 -7.5 38.499 -7.5c19.333 0 36.833 4.16699 52.5 12.5
s28.167 20.166 37.5 35.499c1.33301 -14 3.33301 -27.333 6 -40h83zM197.001 146.001c0 -26.667 -5.16602 -46.333 -15.499 -59s-23.5 -19 -39.5 -19c-13.333 0 -24.5 4.66699 -33.5 14s-13.5 25.333 -13.5 48c0 24 4.83301 42.667 14.5 56s24.5 26 44.5 38
c11.333 6.66699 20.166 12.667 26.499 18s11.833 11 16.5 17v-113z" />
    <glyph glyph-name="b" unicode="b" horiz-adv-x="342" 
d="M312 132v250.999c0 45.333 -9.66699 80 -29 104s-49.333 36 -90 36c-14.667 0 -29.167 -3.83301 -43.5 -11.5s-23.833 -17.167 -28.5 -28.5v209h-85v-692h82v34c5.33301 -13.333 15.333 -23.666 30 -30.999s29.667 -11 45 -11c40.667 0 70.667 12 90 36s29 58.667 29 104
zM227 136.999c0 -23.333 -4.83301 -40.5 -14.5 -51.5s-22.5 -16.5 -38.5 -16.5s-28.833 5.5 -38.5 16.5s-14.5 28.167 -14.5 51.5v241c0 23.333 4.83301 40.5 14.5 51.5s22.5 16.5 38.5 16.5s28.833 -5.5 38.5 -16.5s14.5 -28.167 14.5 -51.5v-241z" />
    <glyph glyph-name="c" unicode="c" horiz-adv-x="307" 
d="M289 132v34.001h-85v-29c0 -45.333 -15.333 -68 -46 -68s-46 22.667 -46 68v241c0 21.333 3.66699 38 11 50s19 18 35 18c30.667 0 46 -22.667 46 -68v-30h85v35c0 44.667 -11.167 79.167 -33.5 103.5s-54.833 36.5 -97.5 36.5s-75.167 -12.333 -97.5 -37
s-33.5 -59.334 -33.5 -104.001v-250c0 -44.667 11.333 -79.167 34 -103.5s55 -36.5 97 -36.5s74.333 12.167 97 36.5s34 58.833 34 103.5z" />
    <glyph glyph-name="d" unicode="d" horiz-adv-x="342" 
d="M306 0v692.001h-85v-209c-4.66699 11.333 -14.167 20.833 -28.5 28.5s-28.833 11.5 -43.5 11.5c-40.667 0 -70.667 -12 -90 -36s-29 -58.667 -29 -104v-251c0 -45.333 9.66699 -80 29 -104s49.333 -36 90 -36c15.333 0 30.333 3.66699 45 11s24.667 17.666 30 30.999v-34
h82zM221 137.001c0 -23.333 -4.83301 -40.5 -14.5 -51.5s-22.5 -16.5 -38.5 -16.5s-28.833 5.5 -38.5 16.5s-14.5 28.167 -14.5 51.5v241c0 23.333 4.83301 40.5 14.5 51.5s22.5 16.5 38.5 16.5s28.833 -5.5 38.5 -16.5s14.5 -28.167 14.5 -51.5v-241z" />
    <glyph glyph-name="e" unicode="e" horiz-adv-x="328" 
d="M302 132v34h-85v-29c0 -23.333 -4.66699 -40.5 -14 -51.5s-22 -16.5 -38 -16.5s-28.833 5.5 -38.5 16.5s-14.5 28.167 -14.5 51.5v97h190v149c0 44.667 -12.167 79.167 -36.5 103.5s-58.166 36.5 -101.499 36.5s-77 -12.167 -101 -36.5s-36 -58.833 -36 -103.5v-251
c0 -44.667 12.167 -79.167 36.5 -103.5s58.166 -36.5 101.499 -36.5s77 12.167 101 36.5s36 58.833 36 103.5zM216 302h-104v76c0 23.333 4.66699 40.5 14 51.5s22 16.5 38 16.5s28.667 -5.5 38 -16.5s14 -28.167 14 -51.5v-76z" />
    <glyph glyph-name="f" unicode="f" horiz-adv-x="188" 
d="M200 609l0.000976562 83.001c-28 2 -51.833 0 -71.5 -6s-35.834 -15.5 -48.501 -28.5s-22 -28.5 -28 -46.5s-9 -38 -9 -60v-36h-34v-81h34v-434h85v434h67v81h-67v31c0 23.333 5.5 40.166 16.5 50.499s29.5 14.5 55.5 12.5z" />
    <glyph glyph-name="g" unicode="g" horiz-adv-x="342" 
d="M306 -55v570.001h-82v-34c-5.33301 13.333 -15.333 23.666 -30 30.999s-29.667 11 -45 11c-40.667 0 -70.667 -12 -90 -36s-29 -58.667 -29 -104v-251c0 -45.333 9.66699 -80 29 -104s49.333 -36 90 -36c14.667 0 29.167 3.83301 43.5 11.5s23.833 17.167 28.5 28.5v-82
c0 -23.333 -4.66699 -40.5 -14 -51.5s-22 -16.5 -38 -16.5s-28.667 5.5 -38 16.5s-14 28.167 -14 51.5v9h-85v-14c0 -44.667 12 -79.167 36 -103.5s57.667 -36.5 101 -36.5s77 12.167 101 36.5s36 58.833 36 103.5zM221 137.001c0 -23.333 -4.83301 -40.5 -14.5 -51.5
s-22.5 -16.5 -38.5 -16.5s-28.833 5.5 -38.5 16.5s-14.5 28.167 -14.5 51.5v241c0 23.333 4.83301 40.5 14.5 51.5s22.5 16.5 38.5 16.5s28.833 -5.5 38.5 -16.5s14.5 -28.167 14.5 -51.5v-241z" />
    <glyph glyph-name="h" unicode="h" horiz-adv-x="337" 
d="M304 0l0.00195312 383c0 45.333 -8.83301 80 -26.5 104s-46.834 36 -87.501 36c-14 0 -27.833 -3.83301 -41.5 -11.5s-22.834 -17.167 -27.501 -28.5v209h-85v-692h85v378c0 23.333 4.33301 40.5 13 51.5s20.667 16.5 36 16.5c32.667 0 49 -22.667 49 -68v-378h85z" />
    <glyph glyph-name="i" unicode="i" horiz-adv-x="157" 
d="M121 591v101h-85v-101h85zM121 0v515h-85v-515h85z" />
    <glyph glyph-name="j" unicode="j" horiz-adv-x="157" 
d="M121 591v101h-85v-101h85zM121 -51l-0.000976562 566h-85v-561c0 -23.333 -5.16699 -40.166 -15.5 -50.499s-29.166 -14.5 -56.499 -12.5v-83c55.333 -4.66699 95.333 5.66602 120 30.999s37 62 37 110z" />
    <glyph glyph-name="k" unicode="k" horiz-adv-x="334" 
d="M333 0l-120 327.001l117 188h-91l-91 -145c-4 -6.66699 -8 -14.5 -12 -23.5l-9.5 -22c-2.33301 -5.66699 -3.5 -8.83398 -3.5 -9.50098h-2v377h-85v-692h85v206l31 49l88 -255h93z" />
    <glyph glyph-name="l" unicode="l" horiz-adv-x="157" 
d="M121 0v692h-85v-692h85z" />
    <glyph glyph-name="m" unicode="m" horiz-adv-x="512" 
d="M479 0l0.00195312 383c0 45.333 -8.33301 80 -25 104s-45.334 36 -86.001 36c-42.667 0 -72.334 -16.333 -89.001 -49c-8 16.667 -19 29 -33 37s-33 12 -57 12c-14.667 0 -29 -3.83301 -43 -11.5s-23.333 -17.167 -28 -28.5v32h-82v-515h85v378c0 45.333 15.667 68 47 68
s47 -22.667 47 -68v-378h85v378c0 45.333 15.667 68 47 68s47 -22.667 47 -68v-378h85z" />
    <glyph glyph-name="n" unicode="n" horiz-adv-x="337" 
d="M304 0l0.000976562 383c0 45.333 -8.83301 80 -26.5 104s-46.834 36 -87.501 36c-14.667 0 -29.167 -3.83301 -43.5 -11.5s-23.833 -17.167 -28.5 -28.5v32h-82v-515h85v378c0 23.333 4.33301 40.5 13 51.5s20.667 16.5 36 16.5c32.667 0 49 -22.667 49 -68v-378h85z" />
    <glyph glyph-name="o" unicode="o" horiz-adv-x="330" 
d="M303 132v251c0 44.667 -12.167 79.167 -36.5 103.5s-58.166 36.5 -101.499 36.5s-77.166 -12.167 -101.499 -36.5s-36.5 -58.833 -36.5 -103.5v-251c0 -44.667 12.167 -79.167 36.5 -103.5s58.166 -36.5 101.499 -36.5s77.166 12.167 101.499 36.5
s36.5 58.833 36.5 103.5zM218 137c0 -23.333 -4.83301 -40.5 -14.5 -51.5s-22.5 -16.5 -38.5 -16.5s-28.833 5.5 -38.5 16.5s-14.5 28.167 -14.5 51.5v241c0 23.333 4.83301 40.5 14.5 51.5s22.5 16.5 38.5 16.5s28.833 -5.5 38.5 -16.5s14.5 -28.167 14.5 -51.5v-241z" />
    <glyph glyph-name="p" unicode="p" horiz-adv-x="342" 
d="M312 132v250.999c0 45.333 -9.66699 80 -29 104s-49.333 36 -90 36c-15.333 0 -30.333 -3.66699 -45 -11s-24.667 -17.666 -30 -30.999v34h-82v-705h85v222c4.66699 -11.333 14.167 -20.833 28.5 -28.5s28.833 -11.5 43.5 -11.5c40.667 0 70.667 12 90 36
s29 58.667 29 104zM227 136.999c0 -23.333 -4.83301 -40.5 -14.5 -51.5s-22.5 -16.5 -38.5 -16.5s-28.833 5.5 -38.5 16.5s-14.5 28.167 -14.5 51.5v241c0 23.333 4.83301 40.5 14.5 51.5s22.5 16.5 38.5 16.5s28.833 -5.5 38.5 -16.5s14.5 -28.167 14.5 -51.5v-241z" />
    <glyph glyph-name="q" unicode="q" horiz-adv-x="342" 
d="M306 -190v705.001h-82v-34c-5.33301 13.333 -15.333 23.666 -30 30.999s-29.667 11 -45 11c-40.667 0 -70.667 -12 -90 -36s-29 -58.667 -29 -104v-251c0 -45.333 9.66699 -80 29 -104s49.333 -36 90 -36c14.667 0 29.167 3.83301 43.5 11.5s23.833 17.167 28.5 28.5
v-222h85zM221 137.001c0 -23.333 -4.83301 -40.5 -14.5 -51.5s-22.5 -16.5 -38.5 -16.5s-28.833 5.5 -38.5 16.5s-14.5 28.167 -14.5 51.5v241c0 23.333 4.83301 40.5 14.5 51.5s22.5 16.5 38.5 16.5s28.833 -5.5 38.5 -16.5s14.5 -28.167 14.5 -51.5v-241z" />
    <glyph glyph-name="r" unicode="r" horiz-adv-x="236" 
d="M234 430v89c-25.333 1.33301 -48.5 -4 -69.5 -16s-36.167 -29.667 -45.5 -53v65h-83v-515h85v332c0 38 10.833 65.167 32.5 81.5s48.5 21.833 80.5 16.5z" />
    <glyph glyph-name="s" unicode="s" horiz-adv-x="305" 
d="M290 129c0 32 -6.16602 57.5 -18.499 76.5s-29.833 37.5 -52.5 55.5l-79 63c-13.333 10.667 -22.166 20.167 -26.499 28.5s-6.5 19.5 -6.5 33.5c0 19.333 3.66699 34.333 11 45s18.666 16 33.999 16s26.833 -6.16699 34.5 -18.5s11.5 -29.166 11.5 -50.499v-30h85v35
c0 44.667 -11.333 79.167 -34 103.5s-55 36.5 -97 36.5s-74 -12 -96 -36s-33 -57.667 -33 -101c0 -32 6.16699 -57.167 18.5 -75.5s29.833 -36.5 52.5 -54.5l79 -63c13.333 -10.667 22.166 -20.5 26.499 -29.5s6.5 -20.5 6.5 -34.5c0 -20.667 -5.16699 -36 -15.5 -46
s-23.166 -15 -38.499 -15c-16 0 -28.833 5.66699 -38.5 17s-14.5 28.666 -14.5 51.999v29h-85v-34c0 -44.667 12.167 -79.167 36.5 -103.5s58.166 -36.5 101.499 -36.5c42 0 75.5 12 100.5 36s37.5 57.667 37.5 101z" />
    <glyph glyph-name="t" unicode="t" horiz-adv-x="209" 
d="M203 0l-0.000976562 80.001c-26 -2 -44.167 2.66699 -54.5 14s-15.5 28.666 -15.5 51.999v288h70v81h-70v122h-85v-122h-40v-81h40v-298c0 -22 2.83301 -41.833 8.5 -59.5s14.834 -32.5 27.501 -44.5s28.667 -20.833 48 -26.5s43 -7.5 71 -5.5z" />
    <glyph glyph-name="u" unicode="u" horiz-adv-x="337" 
d="M301 0l-0.000976562 515h-85v-378c0 -23.333 -4.33301 -40.5 -13 -51.5s-20.667 -16.5 -36 -16.5c-32.667 0 -49 22.667 -49 68v378h-85v-383c0 -45.333 8.83301 -80 26.5 -104s46.834 -36 87.501 -36c14.667 0 29.167 3.83301 43.5 11.5s23.833 17.167 28.5 28.5v-32h82
z" />
    <glyph glyph-name="v" unicode="v" horiz-adv-x="294" 
d="M291 515h-88.002l-42 -283c-2 -11.333 -3.66699 -24.333 -5 -39s-2.66602 -28.5 -3.99902 -41.5s-2.33301 -24 -3 -33l-1 -13.5h-2l-1 13c-0.666992 8.66699 -1.66699 19.5 -3 32.5s-2.66602 26.833 -3.99902 41.5s-3 28 -5 40l-42 283h-88l95 -515h97z" />
    <glyph glyph-name="w" unicode="w" horiz-adv-x="482" 
d="M479 515h-85.998l-39 -286l-4.5 -39c-1.66699 -14.667 -3.16699 -28.5 -4.5 -41.5s-2.33301 -24 -3 -33l-1 -13.5h-2l-1 13c-0.666992 8.66699 -1.66699 19.5 -3 32.5s-2.83301 26.833 -4.5 41.5l-4.5 40l-38 286h-94l-38 -286l-4.5 -39
c-1.66699 -14.667 -3.16699 -28.5 -4.5 -41.5s-2.33301 -24 -3 -33l-1 -13.5h-2l-1 13c-0.666992 8.66699 -1.66699 19.5 -3 32.5s-2.83301 26.833 -4.5 41.5l-4.5 40l-39 286h-86l90 -515h94l39 275c2 12 3.66699 25.333 5 40s2.66602 28.5 3.99902 41.5
s2.33301 23.833 3 32.5l1 13h2l1 -13.5c0.666992 -9 1.66699 -20 3 -33s2.66602 -26.833 3.99902 -41.5s3 -27.667 5 -39l39 -275h95z" />
    <glyph glyph-name="x" unicode="x" horiz-adv-x="298" 
d="M296 0l-102 265l99 250h-86l-44 -121c-2.66699 -7.33301 -5 -15.5 -7 -24.5s-3.5 -16.333 -4.5 -22s-1.5 -8.83398 -1.5 -9.50098h-1c0 0.666992 -0.5 3.83398 -1.5 9.50098s-2.66699 13.167 -5 22.5s-4.83301 17.333 -7.5 24l-46 121h-84l99 -249l-102 -266h88l47 135
c2 6.66699 4.16699 14.667 6.5 24l5.5 22.5c1.33301 5.66699 2 8.83398 2 9.50098h1c0 -0.666992 0.5 -3.83398 1.5 -9.50098s2.66699 -13 5 -22l6.5 -24.5l43 -135h88z" />
    <glyph glyph-name="y" unicode="y" horiz-adv-x="294" 
d="M291 515l-90.0039 0.000976562l-40 -283l-4.5 -39c-1.66699 -14.667 -3.16699 -28.5 -4.5 -41.5s-2.33301 -24 -3 -33l-1 -13.5h-2l-1 13c-0.666992 8.66699 -1.66699 19.5 -3 32.5s-2.66602 26.833 -3.99902 41.5s-3 28 -5 40l-40 283h-90l102 -515l-9 -45
c-3.33301 -17.333 -9.16602 -32.333 -17.499 -45s-22.166 -19 -41.499 -19c-4 0 -8.16699 0.166992 -12.5 0.5s-9.16602 1.16602 -14.499 2.49902v-81c6 -1.33301 11.5 -2.5 16.5 -3.5s11.5 -1.5 19.5 -1.5c37.333 0 66.833 12.333 88.5 37s36.167 55.667 43.5 93z" />
    <glyph glyph-name="z" unicode="z" horiz-adv-x="247" 
d="M243 0v77h-152l143 361v77h-222v-77h135l-143 -367v-71h239z" />
    <glyph glyph-name="braceleft" unicode="{" horiz-adv-x="274" 
d="M262 -116v70.9971c-28 -1.33301 -47.833 4.5 -59.5 17.5s-17.5 32.167 -17.5 57.5v173c0 34 -5.83301 60.667 -17.5 80s-29.167 33.333 -52.5 42c23.333 9.33301 40.833 23.666 52.5 42.999s17.5 45.666 17.5 78.999v175c0 24.667 5.83301 43.667 17.5 57
s31.5 19.333 59.5 18v71c-22 2 -42.667 0.833008 -62 -3.5s-36 -12.166 -50 -23.499s-25.167 -26.833 -33.5 -46.5s-12.5 -43.834 -12.5 -72.501v-178c0 -17.333 -2.33301 -31.333 -7 -42s-11 -19.167 -19 -25.5s-17.167 -10.666 -27.5 -12.999s-21.166 -3.5 -32.499 -3.5
v-70c11.333 0 22.166 -1.16699 32.499 -3.5s19.5 -6.66602 27.5 -12.999s14.333 -15 19 -26s7 -24.833 7 -41.5v-176c0 -29.333 4.16699 -53.666 12.5 -72.999s19.5 -34.666 33.5 -45.999s30.667 -19.166 50 -23.499s40 -5.5 62 -3.5z" />
    <glyph glyph-name="bar" unicode="|" horiz-adv-x="184" 
d="M124 0v692h-64v-692h64z" />
    <glyph glyph-name="braceright" unicode="}" horiz-adv-x="274" 
d="M256 290v70.0029c-11.333 0 -22.166 1.16699 -32.499 3.5s-19.5 6.66602 -27.5 12.999s-14.333 14.833 -19 25.5s-7 24.667 -7 42v178c0 28.667 -4.16699 52.834 -12.5 72.501s-19.5 35.167 -33.5 46.5s-30.667 19.166 -50 23.499s-40 5.5 -62 3.5v-71
c28 1.33301 47.833 -4.66699 59.5 -18s17.5 -32.333 17.5 -57v-175c0 -33.333 5.83301 -59.666 17.5 -78.999s29.167 -33.666 52.5 -42.999c-23.333 -8.66699 -40.833 -22.667 -52.5 -42s-17.5 -46 -17.5 -80v-173c0 -25.333 -5.83301 -44.5 -17.5 -57.5
s-31.5 -18.833 -59.5 -17.5v-71c22 -2 42.667 -0.833008 62 3.5s36 12.166 50 23.499s25.167 26.666 33.5 45.999s12.5 43.666 12.5 72.999v176c0 16.667 2.33301 30.5 7 41.5s11 19.667 19 26s17.167 10.666 27.5 12.999s21.166 3.5 32.499 3.5z" />
    <glyph glyph-name="asciitilde" unicode="~" horiz-adv-x="355" 
d="M323 393l-56.9971 0.000976562c0 -15.333 -3.66699 -28.166 -11 -38.499s-16 -15.5 -26 -15.5c-7.33301 0 -14.333 2.5 -21 7.5s-13.834 10.667 -21.501 17s-15.834 12 -24.501 17s-18.334 7.5 -29.001 7.5c-32.667 0 -58.167 -12.333 -76.5 -37
s-26.5 -55.334 -24.5 -92.001h56c0 14 3.83301 26.333 11.5 37s16.5 16 26.5 16c7.33301 0 14.5 -2.5 21.5 -7.5s14.167 -10.5 21.5 -16.5s15.333 -11.5 24 -16.5s18.667 -7.5 30 -7.5c32 0 57 12.167 75 36.5s26.333 55.166 25 92.499z" />
    <glyph glyph-name="Zcaron" horiz-adv-x="295" 
d="M263 833h-69l-49 -81l-49 81h-68l85 -127h64zM278 0v79h-185l176 495v78h-256v-79h167l-175 -499v-74h273z" />
    <glyph glyph-name="Zcaron" unicode="&#x17d;" horiz-adv-x="295" 
d="M263 833h-69l-49 -81l-49 81h-68l85 -127h64zM278 0v79h-185l176 495v78h-256v-79h167l-175 -499v-74h273z" />
    <glyph glyph-name="zcaron" horiz-adv-x="247" 
d="M242 695h-69l-49 -81l-49 81h-68l85 -127h64zM243 0v77h-152l143 361v77h-222v-76h135l-143 -368v-71h239z" />
    <glyph glyph-name="zcaron" unicode="&#x17e;" horiz-adv-x="247" 
d="M242 695h-69l-49 -81l-49 81h-68l85 -127h64zM243 0v77h-152l143 361v77h-222v-76h135l-143 -368v-71h239z" />
    <glyph glyph-name="nonbreakingspace" unicode="&#xa0;" horiz-adv-x="160" 
 />
    <glyph glyph-name="exclamdown" unicode="&#xa1;" horiz-adv-x="195" 
d="M145 593v99h-95v-99h95zM140 0v264l-15 251h-55l-15 -251v-264h85z" />
    <glyph glyph-name="cent" unicode="&#xa2;" horiz-adv-x="350" 
d="M312 200v44.998h-85v-40c0 -45.333 -16.667 -68 -50 -68s-50 22.667 -50 68v241c0 45.333 16.667 68 50 68s50 -22.667 50 -68v-33h85v38c0 39.333 -9.16699 70.833 -27.5 94.5s-44.5 38.167 -78.5 43.5v73h-57v-73c-34.667 -5.33301 -61.167 -19.666 -79.5 -42.999
s-27.5 -55 -27.5 -95v-251c0 -40 9.16699 -71.667 27.5 -95s44.833 -37.666 79.5 -42.999v-72h57v72c34 5.33301 60.167 19.833 78.5 43.5s27.5 55.167 27.5 94.5z" />
    <glyph glyph-name="sterling" unicode="&#xa3;" horiz-adv-x="355" 
d="M331 0v79.001h-204c21.333 17.333 37.5 40.333 48.5 69s16.5 60.667 16.5 96c0 10 -0.5 19.5 -1.5 28.5s-2.16699 17.833 -3.5 26.5h114v57h-129c-4.66699 14 -9.5 27 -14.5 39s-9.5 24 -13.5 36s-7.33301 24.5 -10 37.5s-4 27.5 -4 43.5c0 20 4.33301 36.667 13 50
s22.667 20 42 20c16 0 28.667 -5.33301 38 -16s14 -27.667 14 -51v-69h85v73c0 44.667 -12 79.334 -36 104.001s-57.667 37 -101 37c-24.667 0 -45.834 -3.66699 -63.501 -11s-32.167 -17.666 -43.5 -30.999s-19.666 -29.333 -24.999 -48s-8 -39.334 -8 -62.001
c0 -28.667 4.16699 -54.667 12.5 -78l26.5 -74h-45v-57h62c5.33301 -22.667 8 -45.334 8 -68.001c0 -70.667 -24.333 -123.334 -73 -158.001v-73h295z" />
    <glyph glyph-name="currency" unicode="&#xa4;" horiz-adv-x="365" 
d="M337 133v33h-85v-29c0 -23.333 -4.5 -40.333 -13.5 -51s-21.5 -16 -37.5 -16s-28.667 5.33301 -38 16s-14 27.667 -14 51v97h145v57h-145v73h145v57h-145v94c0 23.333 4.66699 40.333 14 51s22 16 38 16s28.5 -5.33301 37.5 -16s13.5 -27.667 13.5 -51v-29h85v33
c0 44.667 -11.833 79.334 -35.5 104.001s-57.167 37 -100.5 37s-77 -12.333 -101 -37s-36 -59.334 -36 -104.001v-98h-54v-57h54v-73h-54v-57h54v-101c0 -44.667 12 -79.334 36 -104.001s57.667 -37 101 -37s76.833 12.333 100.5 37s35.5 59.334 35.5 104.001z" />
    <glyph glyph-name="yen" unicode="&#xa5;" horiz-adv-x="344" 
d="M328 652h-90l-66 -283l-66 283h-90l62 -221h-51v-57h66l21 -76h-87v-57h101v-241h86v241h103v57h-89l21 76h68v57h-52z" />
    <glyph glyph-name="section" unicode="&#xa7;" horiz-adv-x="336" 
d="M302 309c0 18 -2.66699 33.4971 -8 46.4971s-12.5 24.5 -21.5 34.5s-19.333 19 -31 27s-24.167 16 -37.5 24c-8.66699 5.33301 -17.834 10.5 -27.501 15.5s-18.667 10.833 -27 17.5s-15.166 14.167 -20.499 22.5s-8 18.5 -8 30.5c0 16.667 2.66699 31 8 43
s15.666 18 30.999 18c16.667 0 27.667 -6.5 33 -19.5s8 -29.167 8 -48.5v-27h80v35c0 42 -10 74.667 -30 98s-50.333 35 -91 35c-41.333 0 -71.166 -12.333 -89.499 -37s-27.5 -58 -27.5 -100c0 -19.333 2.16699 -35.5 6.5 -48.5s10.833 -25.167 19.5 -36.5
c-14.667 -10.667 -26.334 -23.167 -35.001 -37.5s-13 -31.5 -13 -51.5c0 -18 2.66699 -33.5 8 -46.5s12.5 -24.5 21.5 -34.5s19.333 -19 31 -27s24.167 -16 37.5 -24c8.66699 -5.33301 17.834 -10.666 27.501 -15.999s18.5 -11.166 26.5 -17.499s14.667 -13.833 20 -22.5
s8 -19 8 -31c0 -19.333 -3.33301 -35.166 -10 -47.499s-17.667 -18.5 -33 -18.5c-16.667 0 -28.334 6.66699 -35.001 20s-10 29.333 -10 48v34h-80v-42c0 -40 10.333 -72.167 31 -96.5s52 -36.5 94 -36.5c20.667 0 38.834 3.66699 54.501 11s28.5 17.333 38.5 30
s17.5 27.5 22.5 44.5s7.5 35.167 7.5 54.5c0 20.667 -2.66699 37.5 -8 50.5s-12.333 24.833 -21 35.5c12.667 9.33301 24.167 20.833 34.5 34.5s15.5 32.5 15.5 56.5zM222 305.997c0 -18.667 -6.33301 -34.334 -19 -47.001l-8.5 5l-20 11.5
c-7.66699 4.33301 -15.5 9 -23.5 14s-14.333 9.16699 -19 12.5c-9.33301 6.66699 -17 13.667 -23 21s-9 16.333 -9 27c0 18.667 6.33301 34.334 19 47.001l8.5 -5l20 -11.5c7.66699 -4.33301 15.5 -9 23.5 -14s14.333 -9.16699 19 -12.5c9.33301 -6.66699 17 -13.667 23 -21
s9 -16.333 9 -27z" />
    <glyph glyph-name="dieresis" unicode="&#xa8;" horiz-adv-x="417" 
d="M315 608v90h-81v-90h81zM184 608v90h-81v-90h81z" />
    <glyph glyph-name="copyright" unicode="&#xa9;" horiz-adv-x="514" 
d="M480 216v220c0 25.333 -4 51.166 -12 77.499s-20.833 50.333 -38.5 72s-40.5 39.5 -68.5 53.5s-62 21 -102 21s-74 -7 -102 -21s-50.833 -31.833 -68.5 -53.5s-30.5 -45.667 -38.5 -72s-12 -52.166 -12 -77.499v-220c0 -25.333 4 -51.166 12 -77.499
s20.833 -50.333 38.5 -72s40.5 -39.5 68.5 -53.5s62 -21 102 -21s74 7 102 21s50.833 31.833 68.5 53.5s30.5 45.667 38.5 72s12 52.166 12 77.499zM413 216c0 -20 -3 -39.5 -9 -58.5s-15.167 -35.667 -27.5 -50s-28.333 -26 -48 -35s-42.834 -13.5 -69.501 -13.5
c-27.333 0 -50.666 4.5 -69.999 13.5s-35.166 20.667 -47.499 35s-21.5 31 -27.5 50s-9 38.5 -9 58.5v220c0 20 3 39.333 9 58s15.167 35.334 27.5 50.001s28.166 26.334 47.499 35.001s42.666 13 69.999 13c26.667 0 49.834 -4.33301 69.501 -13s35.667 -20.334 48 -35.001
s21.5 -31.334 27.5 -50.001s9 -38 9 -58v-220zM352 216v50h-72v-50c0 -12 -2 -19.833 -6 -23.5s-9 -5.5 -15 -5.5s-11.167 2 -15.5 6s-6.5 11.667 -6.5 23v220c0 11.333 2.16699 19 6.5 23s9.5 6 15.5 6s11 -1.83301 15 -5.5s6 -11.5 6 -23.5v-50h72v50
c0 28 -8 50.667 -24 68s-39 26 -69 26s-53.167 -8.66699 -69.5 -26s-24.5 -40 -24.5 -68v-220c0 -28 8.16699 -50.667 24.5 -68s39.5 -26 69.5 -26s53 8.66699 69 26s24 40 24 68z" />
    <glyph glyph-name="ordfeminine" unicode="&#xaa;" horiz-adv-x="239" 
d="M215 325c-1.33301 6.66699 -2.49902 13.3311 -3.49902 19.998s-1.83301 14.334 -2.5 23.001s-1 19 -1 31v45v120c0 28 -6.5 50.167 -19.5 66.5s-34.167 24.5 -63.5 24.5c-28.667 0 -50.334 -7.83301 -65.001 -23.5s-22 -37.834 -22 -66.501v-26h63v23
c0 14 2 23.833 6 29.5s9.66699 8.5 17 8.5c8 0 13.667 -3.16699 17 -9.5s5 -14.5 5 -24.5c0 -16 -3.83301 -27.667 -11.5 -35s-20.5 -15.666 -38.5 -24.999c-23.333 -11.333 -40.833 -25 -52.5 -41s-17.5 -37.667 -17.5 -65c0 -25.333 7 -45 21 -59s31.667 -21 53 -21
c10 0 19.333 2.33301 28 7s15 10.334 19 17.001l3 -19h65zM145.001 418.997c0 -15.333 -2.83301 -26.332 -8.5 -32.999s-12.834 -10 -21.501 -10c-7.33301 0 -13.333 2.33301 -18 7s-7 13.667 -7 27s2.83301 23.666 8.5 30.999s14.5 14.666 26.5 21.999
c8.66699 4.66699 15.334 9.33398 20.001 14.001v-58z" />
    <glyph glyph-name="guillemotleft" unicode="&#xab;" horiz-adv-x="366" 
d="M344 130v88l-100 82l100 80v89l-158 -136v-67zM172 130v88l-100 82l100 80v89l-158 -136v-67z" />
    <glyph glyph-name="logicalnot" unicode="&#xac;" 
d="M150 279v104h-100v-104h100z" />
    <glyph glyph-name="registered" unicode="&#xae;" horiz-adv-x="287" 
d="M263 429v121c0 18 -3.16699 33.667 -9.5 47s-15 24.5 -26 33.5s-23.667 15.667 -38 20s-29.833 6.5 -46.5 6.5c-33.333 0 -61.5 -9 -84.5 -27s-34.5 -44.667 -34.5 -80v-121c0 -35.333 11.5 -62 34.5 -80s51.167 -27 84.5 -27c16.667 0 32.167 2.16699 46.5 6.5
s27 11 38 20s19.667 20.167 26 33.5s9.5 29 9.5 47zM227 429c0 -22.667 -8 -40.667 -24 -54s-36 -20 -60 -20s-44 6.66699 -60 20s-24 31.333 -24 54v121c0 22.667 8 40.5 24 53.5s36 19.5 60 19.5s44 -6.5 60 -19.5s24 -30.833 24 -53.5v-121zM195 391
c-1.33301 3.33301 -2.33301 7.83203 -3 13.499s-1 10.167 -1 13.5v41c0 6.66699 -1.33301 13 -4 19s-6.66699 10.333 -12 13c4.66699 3.33301 8.5 7.5 11.5 12.5s4.5 10.167 4.5 15.5v23c0 12.667 -3.83301 23.667 -11.5 33s-19.5 14 -35.5 14h-47v-198h38v81h9
c3.33301 0 5.83301 -0.666992 7.5 -2s2.5 -4.66602 2.5 -9.99902v-44c0 -8.66699 1 -17 3 -25h38zM153 517.999c0 -8 -3.66699 -12 -11 -12h-7v50h7c7.33301 0 11 -4.66699 11 -14v-24z" />
    <glyph glyph-name="macron" unicode="&#xaf;" horiz-adv-x="391" 
d="M349 618v60h-307v-60h307z" />
    <glyph glyph-name="macron" unicode="&#x2c9;" horiz-adv-x="391" 
d="M349 618v60h-307v-60h307z" />
    <glyph glyph-name="degree" unicode="&#xb0;" horiz-adv-x="213" 
d="M185 483v94c0 23.333 -6.16699 43 -18.5 59s-32.5 24 -60.5 24s-48 -8 -60 -24s-18 -35.667 -18 -59v-94c0 -23.333 6 -43.166 18 -59.499s32 -24.5 60 -24.5s48.167 8.16699 60.5 24.5s18.5 36.166 18.5 59.499zM131 481c0 -22 -8.33301 -33 -25 -33s-25 11 -25 33v97
c0 22.667 8.33301 34 25 34s25 -11.333 25 -34v-97z" />
    <glyph glyph-name="ffl" unicode="&#xb1;" horiz-adv-x="533" 
d="M497 0l0.000976562 692.002h-129c-47.333 0 -82 -12.833 -104 -38.5s-33 -61.834 -33 -108.501v-30h-104v24c0 26 5.33301 44.667 16 56s29.667 16 57 14v83c-28 2 -51.833 -0.166992 -71.5 -6.5s-35.834 -16 -48.501 -29s-22 -29.167 -28 -48.5s-9 -40.333 -9 -63v-30
h-34v-81h34v-434h84v434h104v-434h84v434h68v81h-68v24c0 21.333 3.83301 38.666 11.5 51.999s23.167 20 46.5 20h39v-611h85z" />
    <glyph glyph-name="twosuperior" unicode="&#xb2;" horiz-adv-x="270" 
d="M231 215v60.001h-123v32c0 15.333 4.16699 28.5 12.5 39.5s21.5 24.167 39.5 39.5c17.333 14.667 32.833 31 46.5 49s20.5 40 20.5 66v59c0 30.667 -8.16699 54.5 -24.5 71.5s-39.5 25.5 -69.5 25.5s-52.833 -8.5 -68.5 -25.5s-23.5 -40.833 -23.5 -71.5v-52h66v50
c0 14.667 2.16699 24.834 6.5 30.501s10.833 8.5 19.5 8.5c8 0 14.5 -2.83301 19.5 -8.5s7.5 -15.834 7.5 -30.501v-54c0 -18.667 -6.16699 -34.334 -18.5 -47.001s-25.833 -25.667 -40.5 -39s-28.167 -28.333 -40.5 -45s-18.5 -38 -18.5 -64v-94h189z" />
    <glyph glyph-name="threesuperior" unicode="&#xb3;" horiz-adv-x="276" 
d="M235 306l0.00195312 65.999c0 15.333 -3 29.333 -9 42s-14.667 22.334 -26 29.001c11.333 6.66699 19.666 16.5 24.999 29.5s8 27.167 8 42.5v45c0 30.667 -8.5 54.5 -25.5 71.5s-40.5 25.5 -70.5 25.5s-53.5 -8.5 -70.5 -25.5s-25.5 -40.833 -25.5 -71.5v-52h66v49
c0 14.667 2.66699 25 8 31s12.666 9 21.999 9s16.666 -3 21.999 -9s8 -16.333 8 -31v-50c0 -26 -10.333 -39 -31 -39h-36v-56h37c20.667 0 31 -13.333 31 -40v-63c0 -14.667 -2.83301 -25 -8.5 -31s-13.167 -9 -22.5 -9s-16.666 3 -21.999 9s-8 16.333 -8 31v50h-66v-53
c0 -30.667 8.5 -54.5 25.5 -71.5s40.5 -25.5 70.5 -25.5s53.833 8.5 71.5 25.5s26.5 40.833 26.5 71.5z" />
    <glyph glyph-name="acute" unicode="&#xb4;" horiz-adv-x="417" 
d="M349 735h-102l-87 -132h70z" />
    <glyph glyph-name="mu" unicode="&#xb5;" 
d="M150 279v104h-100v-104h100z" />
    <glyph glyph-name="mu" unicode="&#x3bc;" 
d="M150 279v104h-100v-104h100z" />
    <glyph glyph-name="paragraph" unicode="&#xb6;" horiz-adv-x="464" 
d="M410 0l0.000976562 652h-199c-32.667 0 -60 -6.66699 -82 -20s-39.833 -30.333 -53.5 -51s-23.334 -43.334 -29.001 -68.001s-8.5 -48.334 -8.5 -71.001c0 -20.667 2.5 -43 7.5 -67s13.5 -46.167 25.5 -66.5s28 -37.666 48 -51.999s44.667 -22.166 74 -23.499v-233h74
v571h68v-571h75z" />
    <glyph glyph-name="periodcentered" unicode="&#xb7;" 
d="M150 279v104h-100v-104h100z" />
    <glyph glyph-name="periodcentered" unicode="&#x22c5;" 
d="M150 279v104h-100v-104h100z" />
    <glyph glyph-name="cedilla" unicode="&#xb8;" horiz-adv-x="333" 
d="M191 -58v58h-39v-56c0 -17.333 -8.33301 -26 -25 -26h-16v-37h19c40.667 0 61 20.333 61 61z" />
    <glyph glyph-name="onesuperior" unicode="&#xb9;" horiz-adv-x="197" 
d="M152 215l-0.000976562 437h-57c-1.33301 -17.333 -7.66602 -29.333 -18.999 -36s-25.333 -10.667 -42 -12v-51h51v-338h67z" />
    <glyph glyph-name="ordmasculine" unicode="&#xba;" horiz-adv-x="232" 
d="M207 412v153c0 28.667 -8 51 -24 67s-38.333 24 -67 24s-51 -8 -67 -24s-24 -38.333 -24 -67v-153c0 -28.667 8 -51 24 -67s38.333 -24 67 -24s51 8 67 24s24 38.333 24 67zM145 415c0 -13.333 -2.66699 -23 -8 -29s-12.333 -9 -21 -9s-15.667 3 -21 9s-8 15.667 -8 29
v147c0 13.333 2.66699 23 8 29s12.333 9 21 9s15.667 -3 21 -9s8 -15.667 8 -29v-147z" />
    <glyph glyph-name="guillemotright" unicode="&#xbb;" horiz-adv-x="367" 
d="M352 266v67l-159 136v-89l100 -80l-100 -82v-88zM181 266v67l-159 136v-89l100 -80l-100 -82v-88z" />
    <glyph glyph-name="onequarter" unicode="&#xbc;" horiz-adv-x="580" 
d="M152 215l-0.000976562 437h-57c-1.33301 -17.333 -7.66602 -29.333 -18.999 -36s-25.333 -10.667 -42 -12v-51h51v-338h67zM404.999 652h-61l-216 -652h61zM547.999 79v58h-34v300h-82l-110 -308v-50h125v-79h67v79h34zM447.999 325
c-0.666992 -4.66699 -1 -9.33301 -1 -14v-14v-160h-58z" />
    <glyph glyph-name="onehalf" unicode="&#xbd;" horiz-adv-x="598" 
d="M152 215l-0.000976562 437h-57c-1.33301 -17.333 -7.66602 -29.333 -18.999 -36s-25.333 -10.667 -42 -12v-51h51v-338h67zM404.999 652h-61l-216 -652h61zM558.999 0v60.001h-123v32c0 15.333 4.16699 28.5 12.5 39.5s21.5 24.167 39.5 39.5
c17.333 14.667 32.833 31 46.5 49s20.5 40 20.5 66v59c0 30.667 -8.16699 54.5 -24.5 71.5s-39.5 25.5 -69.5 25.5s-52.833 -8.5 -68.5 -25.5s-23.5 -40.833 -23.5 -71.5v-52h66v50c0 14.667 2.16699 24.834 6.5 30.501s10.833 8.5 19.5 8.5c8 0 14.5 -2.83301 19.5 -8.5
s7.5 -15.834 7.5 -30.501v-54c0 -18.667 -6.16699 -34.334 -18.5 -47.001s-25.833 -25.667 -40.5 -39s-28.167 -28.333 -40.5 -45s-18.5 -38 -18.5 -64v-94h189z" />
    <glyph glyph-name="threequarters" unicode="&#xbe;" horiz-adv-x="646" 
d="M235 306l0.00195312 65.999c0 15.333 -3 29.333 -9 42s-14.667 22.334 -26 29.001c11.333 6.66699 19.666 16.5 24.999 29.5s8 27.167 8 42.5v45c0 30.667 -8.5 54.5 -25.5 71.5s-40.5 25.5 -70.5 25.5s-53.5 -8.5 -70.5 -25.5s-25.5 -40.833 -25.5 -71.5v-52h66v49
c0 14.667 2.66699 25 8 31s12.666 9 21.999 9s16.666 -3 21.999 -9s8 -16.333 8 -31v-50c0 -26 -10.333 -39 -31 -39h-36v-56h37c20.667 0 31 -13.333 31 -40v-63c0 -14.667 -2.83301 -25 -8.5 -31s-13.167 -9 -22.5 -9s-16.666 3 -21.999 9s-8 16.333 -8 31v50h-66v-53
c0 -30.667 8.5 -54.5 25.5 -71.5s40.5 -25.5 70.5 -25.5s53.833 8.5 71.5 25.5s26.5 40.833 26.5 71.5zM471.002 651.999h-61l-216 -652h61zM614.002 78.999v58h-35v300h-81l-110 -308v-50h125v-79h66v79h35zM514.002 324.999c-0.666992 -4.66699 -1 -9.33301 -1 -14v-14
v-160h-59z" />
    <glyph glyph-name="questiondown" unicode="&#xbf;" horiz-adv-x="323" 
d="M227 590v99h-96v-99h96zM299 133v72.998h-85v-69c0 -23.333 -4.5 -40.333 -13.5 -51s-21.167 -16 -36.5 -16c-17.333 0 -30.166 6.83301 -38.499 20.5s-12.5 31.834 -12.5 54.501c0 31.333 2.83301 57.833 8.5 79.5s18.5 43.167 38.5 64.5
c23.333 25.333 39.166 53 47.499 83s12.5 66 12.5 108v42h-81v-34c0 -26.667 -2.5 -52.5 -7.5 -77.5s-18.5 -48.833 -40.5 -71.5c-24 -24.667 -40.5 -52.667 -49.5 -84s-13.5 -68 -13.5 -110c0 -44 10.667 -80.5 32 -109.5s56 -43.5 104 -43.5c44 0 77.5 12.333 100.5 37
s34.5 59.334 34.5 104.001z" />
    <glyph glyph-name="Agrave" unicode="&#xc0;" horiz-adv-x="312" 
d="M185 705l-87 132h-102l123 -132h66zM312 0l-99 652h-113l-100 -652h87l21 167h96l21 -167h87zM193 238h-74l24 196l4.5 39c1.66699 14.667 3 28.5 4 41.5l2.5 33l1 13.5h2l1 -13l2.5 -32.5c1 -13 2.33301 -26.833 4 -41.5l4.5 -40z" />
    <glyph glyph-name="Aacute" unicode="&#xc1;" horiz-adv-x="312" 
d="M297 838h-102l-87 -132h70zM312 0l-99 652h-113l-100 -652h87l21 167h96l21 -167h87zM193 238h-74l24 196l4.5 39c1.66699 14.667 3 28.5 4 41.5l2.5 33l1 13.5h2l1 -13l2.5 -32.5c1 -13 2.33301 -26.833 4 -41.5l4.5 -40z" />
    <glyph glyph-name="Acircumflex" unicode="&#xc2;" horiz-adv-x="312" 
d="M252 706l-72 127h-58l-71 -127h64l36 75l36 -75h65zM312 0l-99 652h-113l-100 -652h87l21 167h96l21 -167h87zM193 238h-74l24 196l4.5 39c1.66699 14.667 3 28.5 4 41.5l2.5 33l1 13.5h2l1 -13l2.5 -32.5c1 -13 2.33301 -26.833 4 -41.5l4.5 -40z" />
    <glyph glyph-name="Atilde" unicode="&#xc3;" horiz-adv-x="312" 
d="M270 813l-45.999 0.000976562c0 -12 -2.83301 -22.167 -8.5 -30.5s-12.5 -12.5 -20.5 -12.5c-6 0 -11.667 2 -17 6s-11 8.5 -17 13.5s-12.5 9.5 -19.5 13.5s-14.833 6 -23.5 6c-25.333 0 -45.333 -9.66699 -60 -29s-21.334 -44 -20.001 -74h46
c0 11.333 2.83301 21.166 8.5 29.499s12.5 12.5 20.5 12.5c6 0 11.667 -2 17 -6l17 -13c6 -4.66699 12.5 -9 19.5 -13s14.833 -6 23.5 -6c26 0 46.167 9.83301 60.5 29.5s20.833 44.167 19.5 73.5zM312.001 0.000976562l-99 652h-113l-100 -652h87l21 167h96l21 -167h87z
M193.001 238.001h-74l24 196l4.5 39c1.66699 14.667 3 28.5 4 41.5l2.5 33l1 13.5h2l1 -13l2.5 -32.5c1 -13 2.33301 -26.833 4 -41.5l4.5 -40z" />
    <glyph glyph-name="Adieresis" unicode="&#xc4;" horiz-adv-x="312" 
d="M258 713v90h-81v-90h81zM127 713v90h-81v-90h81zM312 0l-99 652h-113l-100 -652h87l21 167h96l21 -167h87zM193 238h-74l24 196l4.5 39c1.66699 14.667 3 28.5 4 41.5l2.5 33l1 13.5h2l1 -13l2.5 -32.5c1 -13 2.33301 -26.833 4 -41.5l4.5 -40z" />
    <glyph glyph-name="Aring" unicode="&#xc5;" horiz-adv-x="312" 
d="M242 786c0 24.667 -8.5 45.5 -25.5 62.5s-37.833 25.5 -62.5 25.5s-45.334 -8.5 -62.001 -25.5s-25 -37.833 -25 -62.5c0 -24 8.33301 -44.5 25 -61.5s37.334 -25.5 62.001 -25.5s45.5 8.5 62.5 25.5s25.5 37.5 25.5 61.5zM312 0l-99 652h-113l-100 -652h87l21 167h96
l21 -167h87zM198 786c0 -12 -4.5 -22.5 -13.5 -31.5s-19.5 -13.5 -31.5 -13.5s-22.5 4.5 -31.5 13.5s-13.5 19.5 -13.5 31.5c0 12.667 4.5 23.5 13.5 32.5s19.5 13.5 31.5 13.5s22.5 -4.5 31.5 -13.5s13.5 -19.833 13.5 -32.5zM193 238h-74l24 196l4.5 39
c1.66699 14.667 3 28.5 4 41.5l2.5 33l1 13.5h2l1 -13l2.5 -32.5c1 -13 2.33301 -26.833 4 -41.5l4.5 -40z" />
    <glyph glyph-name="AE" unicode="&#xc6;" horiz-adv-x="463" 
d="M447 0v79h-128v217h113v80h-112v197h127v79h-257l-196 -652h87l44 162h108v-162h214zM233 238h-88l88 325v-325z" />
    <glyph glyph-name="Ccedilla" unicode="&#xc7;" horiz-adv-x="331" 
d="M306 132v74h-86v-69c0 -44.667 -16.333 -67 -49 -67c-33.333 0 -50 22.333 -50 67v378c0 44.667 16.667 67 50 67c32.667 0 49 -22.333 49 -67v-69h86v74c0 44.667 -11.667 79.167 -35 103.5s-56.666 36.5 -99.999 36.5s-76.833 -12.167 -100.5 -36.5
s-35.5 -58.833 -35.5 -103.5v-388c0 -41.333 10.167 -74 30.5 -98s49.166 -37.667 86.499 -41v-49c0 -17.333 -8.33301 -26 -25 -26h-16v-37h19c40.667 0 61 20.333 61 61v51c37.333 3.33301 65.833 17 85.5 41s29.5 56.667 29.5 98z" />
    <glyph glyph-name="Egrave" unicode="&#xc8;" horiz-adv-x="275" 
d="M217 706l-87 132h-102l123 -132h66zM259 0v79h-128v217h113v80h-112v197h127v79h-214v-652h214z" />
    <glyph glyph-name="Eacute" unicode="&#xc9;" horiz-adv-x="275" 
d="M300 838h-102l-87 -132h70zM259 0v79h-128v217h113v80h-112v197h127v79h-214v-652h214z" />
    <glyph glyph-name="Ecircumflex" unicode="&#xca;" horiz-adv-x="275" 
d="M255 706l-72 127h-58l-71 -127h64l36 75l36 -75h65zM259 0v79h-128v217h113v80h-112v197h127v79h-214v-652h214z" />
    <glyph glyph-name="Edieresis" unicode="&#xcb;" horiz-adv-x="275" 
d="M255 711v90h-81v-90h81zM124 711v90h-81v-90h81zM259 0v79h-128v217h113v80h-112v197h127v79h-214v-652h214z" />
    <glyph glyph-name="Igrave" unicode="&#xcc;" horiz-adv-x="177" 
d="M127 706l-87 132h-102l123 -132h66zM132 0v652h-87v-652h87z" />
    <glyph glyph-name="Iacute" unicode="&#xcd;" horiz-adv-x="177" 
d="M240 838h-102l-87 -132h70zM132 0v652h-87v-652h87z" />
    <glyph glyph-name="Icircumflex" unicode="&#xce;" horiz-adv-x="177" 
d="M190 706l-72 127h-58l-71 -127h64l36 75l36 -75h65zM132 0v652h-87v-652h87z" />
    <glyph glyph-name="Idieresis" unicode="&#xcf;" horiz-adv-x="177" 
d="M194 712v90h-81v-90h81zM63 712v90h-81v-90h81zM132 0v652h-87v-652h87z" />
    <glyph glyph-name="Eth" unicode="&#xd0;" horiz-adv-x="365" 
d="M330 142v368.999c0 42.667 -10.833 76.834 -32.5 102.501s-57.167 38.5 -106.5 38.5h-141v-259h-33v-77h33v-316h141c49.333 -0 84.833 12.833 106.5 38.5s32.5 60.167 32.5 103.5zM244 143.999c0 -20.667 -4.33301 -37 -13 -49s-22 -18 -40 -18h-55v239h55v77h-55v180
h55c18 0 31.333 -6 40 -18s13 -28.333 13 -49v-362z" />
    <glyph glyph-name="Ntilde" unicode="&#xd1;" horiz-adv-x="389" 
d="M315 813l-45.999 0.000976562c0 -12 -2.83301 -22.167 -8.5 -30.5s-12.5 -12.5 -20.5 -12.5c-6 0 -11.667 2 -17 6s-11 8.5 -17 13.5s-12.5 9.5 -19.5 13.5s-14.833 6 -23.5 6c-25.333 0 -45.333 -9.66699 -60 -29s-21.334 -44 -20.001 -74h46
c0 11.333 2.83301 21.166 8.5 29.499s12.5 12.5 20.5 12.5c6 0 11.667 -2 17 -6l17 -13c6 -4.66699 12.5 -9 19.5 -13s14.833 -6 23.5 -6c26 0 46.167 9.83301 60.5 29.5s20.833 44.167 19.5 73.5zM344.001 0.000976562v651.999h-79v-350c0 -15.333 0.5 -31.166 1.5 -47.499
s2.16699 -31.333 3.5 -45s2.5 -25 3.5 -34l1.5 -13.5h-2l-132 490h-96v-652h79v350c0 16 -0.5 32.167 -1.5 48.5s-2.33301 31.333 -4 45l-4 33.5l-1.5 13h2l132 -490h97z" />
    <glyph glyph-name="Ograve" unicode="&#xd2;" horiz-adv-x="351" 
d="M214 706l-87 132h-102l123 -132h66zM315 132v388c0 44.667 -12.5 79.167 -37.5 103.5s-59.167 36.5 -102.5 36.5s-77.5 -12.167 -102.5 -36.5s-37.5 -58.833 -37.5 -103.5v-388c0 -44.667 12.5 -79.167 37.5 -103.5s59.167 -36.5 102.5 -36.5s77.5 12.167 102.5 36.5
s37.5 58.833 37.5 103.5zM229 137c0 -23.333 -5 -40.333 -15 -51s-23 -16 -39 -16s-29 5.33301 -39 16s-15 27.667 -15 51v378c0 23.333 5 40.333 15 51s23 16 39 16s29 -5.33301 39 -16s15 -27.667 15 -51v-378z" />
    <glyph glyph-name="Oacute" unicode="&#xd3;" horiz-adv-x="351" 
d="M326 838h-102l-87 -132h70zM315 132v388c0 44.667 -12.5 79.167 -37.5 103.5s-59.167 36.5 -102.5 36.5s-77.5 -12.167 -102.5 -36.5s-37.5 -58.833 -37.5 -103.5v-388c0 -44.667 12.5 -79.167 37.5 -103.5s59.167 -36.5 102.5 -36.5s77.5 12.167 102.5 36.5
s37.5 58.833 37.5 103.5zM229 137c0 -23.333 -5 -40.333 -15 -51s-23 -16 -39 -16s-29 5.33301 -39 16s-15 27.667 -15 51v378c0 23.333 5 40.333 15 51s23 16 39 16s29 -5.33301 39 -16s15 -27.667 15 -51v-378z" />
    <glyph glyph-name="Ocircumflex" unicode="&#xd4;" horiz-adv-x="351" 
d="M273 706l-72 127h-58l-71 -127h64l36 75l36 -75h65zM315 132v388c0 44.667 -12.5 79.167 -37.5 103.5s-59.167 36.5 -102.5 36.5s-77.5 -12.167 -102.5 -36.5s-37.5 -58.833 -37.5 -103.5v-388c0 -44.667 12.5 -79.167 37.5 -103.5s59.167 -36.5 102.5 -36.5
s77.5 12.167 102.5 36.5s37.5 58.833 37.5 103.5zM229 137c0 -23.333 -5 -40.333 -15 -51s-23 -16 -39 -16s-29 5.33301 -39 16s-15 27.667 -15 51v378c0 23.333 5 40.333 15 51s23 16 39 16s29 -5.33301 39 -16s15 -27.667 15 -51v-378z" />
    <glyph glyph-name="Otilde" unicode="&#xd5;" horiz-adv-x="351" 
d="M292 813l-45.999 0.000976562c0 -12 -2.83301 -22.167 -8.5 -30.5s-12.5 -12.5 -20.5 -12.5c-6 0 -11.667 2 -17 6s-11 8.5 -17 13.5s-12.5 9.5 -19.5 13.5s-14.833 6 -23.5 6c-25.333 0 -45.333 -9.66699 -60 -29s-21.334 -44 -20.001 -74h46
c0 11.333 2.83301 21.166 8.5 29.499s12.5 12.5 20.5 12.5c6 0 11.667 -2 17 -6l17 -13c6 -4.66699 12.5 -9 19.5 -13s14.833 -6 23.5 -6c26 0 46.167 9.83301 60.5 29.5s20.833 44.167 19.5 73.5zM315.001 132.001v388c0 44.667 -12.5 79.167 -37.5 103.5
s-59.167 36.5 -102.5 36.5s-77.5 -12.167 -102.5 -36.5s-37.5 -58.833 -37.5 -103.5v-388c0 -44.667 12.5 -79.167 37.5 -103.5s59.167 -36.5 102.5 -36.5s77.5 12.167 102.5 36.5s37.5 58.833 37.5 103.5zM229.001 137.001c0 -23.333 -5 -40.333 -15 -51s-23 -16 -39 -16
s-29 5.33301 -39 16s-15 27.667 -15 51v378c0 23.333 5 40.333 15 51s23 16 39 16s29 -5.33301 39 -16s15 -27.667 15 -51v-378z" />
    <glyph glyph-name="Odieresis" unicode="&#xd6;" horiz-adv-x="351" 
d="M281 712v90h-81v-90h81zM150 712v90h-81v-90h81zM315 132v388c0 44.667 -12.5 79.167 -37.5 103.5s-59.167 36.5 -102.5 36.5s-77.5 -12.167 -102.5 -36.5s-37.5 -58.833 -37.5 -103.5v-388c0 -44.667 12.5 -79.167 37.5 -103.5s59.167 -36.5 102.5 -36.5
s77.5 12.167 102.5 36.5s37.5 58.833 37.5 103.5zM229 137c0 -23.333 -5 -40.333 -15 -51s-23 -16 -39 -16s-29 5.33301 -39 16s-15 27.667 -15 51v378c0 23.333 5 40.333 15 51s23 16 39 16s29 -5.33301 39 -16s15 -27.667 15 -51v-378z" />
    <glyph glyph-name="multiply" unicode="&#xd7;" horiz-adv-x="511" 
d="M496 70l-182 183l182 182l-57 58l-183 -183l-183 183l-58 -58l183 -182l-183 -183l58 -58l183 183l183 -183z" />
    <glyph glyph-name="Oslash" unicode="&#xd8;" horiz-adv-x="351" 
d="M316 142v368c0 44 -11.167 80 -33.5 108s-58.166 42 -107.499 42s-85 -14 -107 -42s-33 -64 -33 -108v-368c0 -44 11 -80 33 -108s57.667 -42 107 -42s85.166 14 107.499 42s33.5 64 33.5 108zM230 474l-110 -215v248c0 23.333 4.66699 41.5 14 54.5s23 19.5 41 19.5
s31.667 -6.5 41 -19.5s14 -31.167 14 -54.5v-33zM230 145c0 -23.333 -4.66699 -41.5 -14 -54.5s-23 -19.5 -41 -19.5s-31.667 6.5 -41 19.5s-14 31.167 -14 54.5v36l110 211v-247z" />
    <glyph glyph-name="Ugrave" unicode="&#xd9;" horiz-adv-x="355" 
d="M225 706l-87 132h-102l123 -132h66zM315 132l0.00195312 520h-86v-515c0 -23.333 -4.66699 -40.333 -14 -51s-22 -16 -38 -16s-28.667 5.33301 -38 16s-14 27.667 -14 51v515h-86v-520c0 -44.667 12.167 -79.167 36.5 -103.5s58.166 -36.5 101.499 -36.5
s77.166 12.167 101.499 36.5s36.5 58.833 36.5 103.5z" />
    <glyph glyph-name="Uacute" unicode="&#xda;" horiz-adv-x="355" 
d="M330 838h-102l-87 -132h70zM315 132l0.00195312 520h-86v-515c0 -23.333 -4.66699 -40.333 -14 -51s-22 -16 -38 -16s-28.667 5.33301 -38 16s-14 27.667 -14 51v515h-86v-520c0 -44.667 12.167 -79.167 36.5 -103.5s58.166 -36.5 101.499 -36.5
s77.166 12.167 101.499 36.5s36.5 58.833 36.5 103.5z" />
    <glyph glyph-name="Ucircumflex" unicode="&#xdb;" horiz-adv-x="355" 
d="M280 706l-72 127h-58l-71 -127h64l36 75l36 -75h65zM315 132l0.00195312 520h-86v-515c0 -23.333 -4.66699 -40.333 -14 -51s-22 -16 -38 -16s-28.667 5.33301 -38 16s-14 27.667 -14 51v515h-86v-520c0 -44.667 12.167 -79.167 36.5 -103.5s58.166 -36.5 101.499 -36.5
s77.166 12.167 101.499 36.5s36.5 58.833 36.5 103.5z" />
    <glyph glyph-name="Udieresis" unicode="&#xdc;" horiz-adv-x="355" 
d="M282 712v90h-81v-90h81zM151 712v90h-81v-90h81zM315 132l0.00195312 520h-86v-515c0 -23.333 -4.66699 -40.333 -14 -51s-22 -16 -38 -16s-28.667 5.33301 -38 16s-14 27.667 -14 51v515h-86v-520c0 -44.667 12.167 -79.167 36.5 -103.5s58.166 -36.5 101.499 -36.5
s77.166 12.167 101.499 36.5s36.5 58.833 36.5 103.5z" />
    <glyph glyph-name="Yacute" unicode="&#xdd;" horiz-adv-x="308" 
d="M315 837h-102l-87 -132h70zM314 652h-90.002l-49 -214c-3.33301 -14.667 -6.16602 -29.5 -8.49902 -44.5l-5.5 -35c-1.33301 -8.33301 -2 -13.166 -2 -14.499h-2c0 1.33301 -0.5 6.16602 -1.5 14.499s-2.66699 20 -5 35s-5.16602 29.833 -8.49902 44.5l-50 214h-90
l112 -403v-249h86v249z" />
    <glyph glyph-name="Thorn" unicode="&#xde;" horiz-adv-x="346" 
d="M321 309v112c0 42.667 -10.833 77 -32.5 103s-57.167 39 -106.5 39h-51v89h-86v-652h86v167h51c49.333 0 84.833 12.833 106.5 38.5s32.5 60.167 32.5 103.5zM235 313c0 -20.667 -4.33301 -37 -13 -49s-22 -18 -40 -18h-51v238h51c18 0 31.333 -6 40 -18
s13 -28.333 13 -49v-104z" />
    <glyph glyph-name="germandbls" unicode="&#xdf;" horiz-adv-x="339" 
d="M310 139l0.000976562 119c0 25.333 -5.16699 47.833 -15.5 67.5s-24.5 33.167 -42.5 40.5c18 7.33301 31.833 21 41.5 41s14.5 42.667 14.5 68v85c0 43.333 -11.5 77.5 -34.5 102.5s-56.5 37.5 -100.5 37.5c-44.667 0 -78.667 -12.667 -102 -38s-35 -59.333 -35 -102
v-560h85v555c0 23.333 4.83301 40.5 14.5 51.5s22.167 16.5 37.5 16.5s27.5 -5.66699 36.5 -17s13.5 -28.333 13.5 -51v-91c0 -20.667 -4.33301 -37 -13 -49s-22 -18 -40 -18h-19v-72h21c18 0 31.333 -6 40 -18s13 -28.333 13 -49v-114
c0 -23.333 -4.83301 -40.333 -14.5 -51s-22.5 -16 -38.5 -16h-21v-77h21c43.333 0 77.166 12 101.499 36s36.5 58.333 36.5 103z" />
    <glyph glyph-name="agrave" unicode="&#xe0;" horiz-adv-x="316" 
d="M201 567l-87 132h-102l123 -132h66zM292 0c-2 9.33301 -3.66602 18.667 -4.99902 28s-2.16602 20.833 -2.49902 34.5s-0.666016 30.167 -0.999023 49.5s-0.5 43.333 -0.5 72v174c0 22.667 -1.66699 44.167 -5 64.5s-9.5 37.833 -18.5 52.5s-21.667 26.334 -38 35.001
s-37.833 13 -64.5 13c-43.333 0 -76.5 -13 -99.5 -39s-34.5 -61.333 -34.5 -106v-30h85v30c0 46 15.667 69 47 69c16.667 0 28 -6 34 -18s9 -26.667 9 -44c0 -14 -1.66699 -26 -5 -36s-8.33301 -18.833 -15 -26.5s-15.334 -14.667 -26.001 -21s-23 -13.166 -37 -20.499
c-18 -9.33301 -33.833 -19 -47.5 -29s-24.834 -21.333 -33.501 -34s-15.167 -27.167 -19.5 -43.5s-6.5 -34.833 -6.5 -55.5c0 -22 3 -40.833 9 -56.5s14 -28.834 24 -39.501s21.167 -18.5 33.5 -23.5s25.166 -7.5 38.499 -7.5c19.333 0 36.833 4.16699 52.5 12.5
s28.167 20.166 37.5 35.499c1.33301 -14 3.33301 -27.333 6 -40h83zM197.001 146.001c0 -26.667 -5.16602 -46.333 -15.499 -59s-23.5 -19 -39.5 -19c-13.333 0 -24.5 4.66699 -33.5 14s-13.5 25.333 -13.5 48c0 24 4.83301 42.667 14.5 56s24.5 26 44.5 38
c11.333 6.66699 20.166 12.667 26.499 18s11.833 11 16.5 17v-113z" />
    <glyph glyph-name="aacute" unicode="&#xe1;" horiz-adv-x="316" 
d="M322 701h-102l-87 -132h70zM292 0c-2 9.33301 -3.66602 18.667 -4.99902 28s-2.16602 20.833 -2.49902 34.5s-0.666016 30.167 -0.999023 49.5s-0.5 43.333 -0.5 72v174c0 22.667 -1.66699 44.167 -5 64.5s-9.5 37.833 -18.5 52.5s-21.667 26.334 -38 35.001
s-37.833 13 -64.5 13c-43.333 0 -76.5 -13 -99.5 -39s-34.5 -61.333 -34.5 -106v-30h85v30c0 46 15.667 69 47 69c16.667 0 28 -6 34 -18s9 -26.667 9 -44c0 -14 -1.66699 -26 -5 -36s-8.33301 -18.833 -15 -26.5s-15.334 -14.667 -26.001 -21s-23 -13.166 -37 -20.499
c-18 -9.33301 -33.833 -19 -47.5 -29s-24.834 -21.333 -33.501 -34s-15.167 -27.167 -19.5 -43.5s-6.5 -34.833 -6.5 -55.5c0 -22 3 -40.833 9 -56.5s14 -28.834 24 -39.501s21.167 -18.5 33.5 -23.5s25.166 -7.5 38.499 -7.5c19.333 0 36.833 4.16699 52.5 12.5
s28.167 20.166 37.5 35.499c1.33301 -14 3.33301 -27.333 6 -40h83zM197.001 146.001c0 -26.667 -5.16602 -46.333 -15.499 -59s-23.5 -19 -39.5 -19c-13.333 0 -24.5 4.66699 -33.5 14s-13.5 25.333 -13.5 48c0 24 4.83301 42.667 14.5 56s24.5 26 44.5 38
c11.333 6.66699 20.166 12.667 26.499 18s11.833 11 16.5 17v-113z" />
    <glyph glyph-name="acircumflex" unicode="&#xe2;" horiz-adv-x="316" 
d="M266 568l-72 127h-58l-71 -127h64l36 75l36 -75h65zM292 0c-2 9.33301 -3.66602 18.667 -4.99902 28s-2.16602 20.833 -2.49902 34.5s-0.666016 30.167 -0.999023 49.5s-0.5 43.333 -0.5 72v174c0 22.667 -1.66699 44.167 -5 64.5s-9.5 37.833 -18.5 52.5
s-21.667 26.334 -38 35.001s-37.833 13 -64.5 13c-43.333 0 -76.5 -13 -99.5 -39s-34.5 -61.333 -34.5 -106v-30h85v30c0 46 15.667 69 47 69c16.667 0 28 -6 34 -18s9 -26.667 9 -44c0 -14 -1.66699 -26 -5 -36s-8.33301 -18.833 -15 -26.5s-15.334 -14.667 -26.001 -21
s-23 -13.166 -37 -20.499c-18 -9.33301 -33.833 -19 -47.5 -29s-24.834 -21.333 -33.501 -34s-15.167 -27.167 -19.5 -43.5s-6.5 -34.833 -6.5 -55.5c0 -22 3 -40.833 9 -56.5s14 -28.834 24 -39.501s21.167 -18.5 33.5 -23.5s25.166 -7.5 38.499 -7.5
c19.333 0 36.833 4.16699 52.5 12.5s28.167 20.166 37.5 35.499c1.33301 -14 3.33301 -27.333 6 -40h83zM197.001 146.001c0 -26.667 -5.16602 -46.333 -15.499 -59s-23.5 -19 -39.5 -19c-13.333 0 -24.5 4.66699 -33.5 14s-13.5 25.333 -13.5 48
c0 24 4.83301 42.667 14.5 56s24.5 26 44.5 38c11.333 6.66699 20.166 12.667 26.499 18s11.833 11 16.5 17v-113z" />
    <glyph glyph-name="atilde" unicode="&#xe3;" horiz-adv-x="316" 
d="M279 674l-45.999 0.000976562c0 -12 -2.83301 -22.167 -8.5 -30.5s-12.5 -12.5 -20.5 -12.5c-6 0 -11.667 2 -17 6s-11 8.5 -17 13.5s-12.5 9.5 -19.5 13.5s-14.833 6 -23.5 6c-25.333 0 -45.333 -9.66699 -60 -29s-21.334 -44 -20.001 -74h46
c0 11.333 2.83301 21.166 8.5 29.499s12.5 12.5 20.5 12.5c6 0 11.667 -2 17 -6l17 -13c6 -4.66699 12.5 -9 19.5 -13s14.833 -6 23.5 -6c26 0 46.167 9.83301 60.5 29.5s20.833 44.167 19.5 73.5zM292.001 0.000976562c-2 9.33301 -3.66602 18.667 -4.99902 28
s-2.16602 20.833 -2.49902 34.5s-0.666016 30.167 -0.999023 49.5s-0.5 43.333 -0.5 72v174c0 22.667 -1.66699 44.167 -5 64.5s-9.5 37.833 -18.5 52.5s-21.667 26.334 -38 35.001s-37.833 13 -64.5 13c-43.333 0 -76.5 -13 -99.5 -39s-34.5 -61.333 -34.5 -106v-30h85v30
c0 46 15.667 69 47 69c16.667 0 28 -6 34 -18s9 -26.667 9 -44c0 -14 -1.66699 -26 -5 -36s-8.33301 -18.833 -15 -26.5s-15.334 -14.667 -26.001 -21s-23 -13.166 -37 -20.499c-18 -9.33301 -33.833 -19 -47.5 -29s-24.834 -21.333 -33.501 -34
s-15.167 -27.167 -19.5 -43.5s-6.5 -34.833 -6.5 -55.5c0 -22 3 -40.833 9 -56.5s14 -28.834 24 -39.501s21.167 -18.5 33.5 -23.5s25.166 -7.5 38.499 -7.5c19.333 0 36.833 4.16699 52.5 12.5s28.167 20.166 37.5 35.499c1.33301 -14 3.33301 -27.333 6 -40h83z
M197.002 146.002c0 -26.667 -5.16602 -46.333 -15.499 -59s-23.5 -19 -39.5 -19c-13.333 0 -24.5 4.66699 -33.5 14s-13.5 25.333 -13.5 48c0 24 4.83301 42.667 14.5 56s24.5 26 44.5 38c11.333 6.66699 20.166 12.667 26.499 18s11.833 11 16.5 17v-113z" />
    <glyph glyph-name="adieresis" unicode="&#xe4;" horiz-adv-x="316" 
d="M266 580v90h-81v-90h81zM135 580v90h-81v-90h81zM292 0c-2 9.33301 -3.66602 18.667 -4.99902 28s-2.16602 20.833 -2.49902 34.5s-0.666016 30.167 -0.999023 49.5s-0.5 43.333 -0.5 72v174c0 22.667 -1.66699 44.167 -5 64.5s-9.5 37.833 -18.5 52.5
s-21.667 26.334 -38 35.001s-37.833 13 -64.5 13c-43.333 0 -76.5 -13 -99.5 -39s-34.5 -61.333 -34.5 -106v-30h85v30c0 46 15.667 69 47 69c16.667 0 28 -6 34 -18s9 -26.667 9 -44c0 -14 -1.66699 -26 -5 -36s-8.33301 -18.833 -15 -26.5s-15.334 -14.667 -26.001 -21
s-23 -13.166 -37 -20.499c-18 -9.33301 -33.833 -19 -47.5 -29s-24.834 -21.333 -33.501 -34s-15.167 -27.167 -19.5 -43.5s-6.5 -34.833 -6.5 -55.5c0 -22 3 -40.833 9 -56.5s14 -28.834 24 -39.501s21.167 -18.5 33.5 -23.5s25.166 -7.5 38.499 -7.5
c19.333 0 36.833 4.16699 52.5 12.5s28.167 20.166 37.5 35.499c1.33301 -14 3.33301 -27.333 6 -40h83zM197.001 146.001c0 -26.667 -5.16602 -46.333 -15.499 -59s-23.5 -19 -39.5 -19c-13.333 0 -24.5 4.66699 -33.5 14s-13.5 25.333 -13.5 48
c0 24 4.83301 42.667 14.5 56s24.5 26 44.5 38c11.333 6.66699 20.166 12.667 26.499 18s11.833 11 16.5 17v-113z" />
    <glyph glyph-name="aring" unicode="&#xe5;" horiz-adv-x="316" 
d="M248 649c0 24.667 -8.5 45.5 -25.5 62.5s-37.833 25.5 -62.5 25.5s-45.334 -8.5 -62.001 -25.5s-25 -37.833 -25 -62.5c0 -24 8.33301 -44.5 25 -61.5s37.334 -25.5 62.001 -25.5s45.5 8.5 62.5 25.5s25.5 37.5 25.5 61.5zM292 0c-2 9.33301 -3.66602 18.667 -4.99902 28
s-2.16602 20.833 -2.49902 34.5s-0.666016 30.167 -0.999023 49.5s-0.5 43.333 -0.5 72v174c0 22.667 -1.66699 44.167 -5 64.5s-9.5 37.833 -18.5 52.5s-21.667 26.334 -38 35.001s-37.833 13 -64.5 13c-43.333 0 -76.5 -13 -99.5 -39s-34.5 -61.333 -34.5 -106v-30h85v30
c0 46 15.667 69 47 69c16.667 0 28 -6 34 -18s9 -26.667 9 -44c0 -14 -1.66699 -26 -5 -36s-8.33301 -18.833 -15 -26.5s-15.334 -14.667 -26.001 -21s-23 -13.166 -37 -20.499c-18 -9.33301 -33.833 -19 -47.5 -29s-24.834 -21.333 -33.501 -34
s-15.167 -27.167 -19.5 -43.5s-6.5 -34.833 -6.5 -55.5c0 -22 3 -40.833 9 -56.5s14 -28.834 24 -39.501s21.167 -18.5 33.5 -23.5s25.166 -7.5 38.499 -7.5c19.333 0 36.833 4.16699 52.5 12.5s28.167 20.166 37.5 35.499c1.33301 -14 3.33301 -27.333 6 -40h83z
M204.001 649.001c0 -12 -4.5 -22.5 -13.5 -31.5s-19.5 -13.5 -31.5 -13.5s-22.5 4.5 -31.5 13.5s-13.5 19.5 -13.5 31.5c0 12.667 4.5 23.5 13.5 32.5s19.5 13.5 31.5 13.5s22.5 -4.5 31.5 -13.5s13.5 -19.833 13.5 -32.5zM197.001 146.001
c0 -26.667 -5.16602 -46.333 -15.499 -59s-23.5 -19 -39.5 -19c-13.333 0 -24.5 4.66699 -33.5 14s-13.5 25.333 -13.5 48c0 24 4.83301 42.667 14.5 56s24.5 26 44.5 38c11.333 6.66699 20.166 12.667 26.499 18s11.833 11 16.5 17v-113z" />
    <glyph glyph-name="ae" unicode="&#xe6;" horiz-adv-x="499" 
d="M473 132l0.000976562 33.998h-85v-29c0 -23.333 -4.66699 -40.5 -14 -51.5s-22 -16.5 -38 -16.5s-28.833 5.5 -38.5 16.5s-14.5 28.167 -14.5 51.5v97h190v150c0 44.667 -12.167 79 -36.5 103s-58.166 36 -101.499 36c-18.667 0 -35.834 -3.66699 -51.501 -11
s-28.167 -18 -37.5 -32c-8 12 -19.333 22.167 -34 30.5s-32.667 12.5 -54 12.5c-43.333 0 -76 -12.167 -98 -36.5s-33 -58.833 -33 -103.5v-35h85v30c0 46 14.667 69 44 69c16.667 0 27.834 -6.16699 33.501 -18.5s8.5 -26.833 8.5 -43.5c0 -14 -1.66699 -26 -5 -36
s-8.33301 -18.833 -15 -26.5s-15.334 -14.667 -26.001 -21s-23 -13.166 -37 -20.499c-18 -9.33301 -33.833 -19 -47.5 -29s-24.834 -21.333 -33.501 -34s-15.167 -27 -19.5 -43s-6.5 -34.333 -6.5 -55c0 -22 3.66699 -41 11 -57s16.833 -29.167 28.5 -39.5
s24.5 -18.166 38.5 -23.499s28 -8 42 -8c29.333 0 52 4.16699 68 12.5s29.667 21.5 41 39.5c11.333 -19.333 25 -32.833 41 -40.5s35.333 -11.5 58 -11.5c43.333 0 77 12.167 101 36.5s36 58.833 36 103.5zM387.001 301.998h-104v76c0 23.333 4.66699 40.5 14 51.5
s22 16.5 38 16.5s28.667 -5.5 38 -16.5s14 -28.167 14 -51.5v-76zM197.001 145.998c0 -26.667 -5.16602 -46.333 -15.499 -59s-23.5 -19 -39.5 -19c-13.333 0 -24.5 4.66699 -33.5 14s-13.5 25.333 -13.5 48c0 24 4.83301 42.667 14.5 56s24.5 26 44.5 38
c11.333 6.66699 20.166 12.667 26.499 18s11.833 11 16.5 17v-113z" />
    <glyph glyph-name="ccedilla" unicode="&#xe7;" horiz-adv-x="307" 
d="M289 132v34.001h-85v-29c0 -45.333 -15.333 -68 -46 -68s-46 22.667 -46 68v241c0 21.333 3.66699 38 11 50s19 18 35 18c30.667 0 46 -22.667 46 -68v-30h85v35c0 44.667 -11.167 79.167 -33.5 103.5s-54.833 36.5 -97.5 36.5s-75.167 -12.333 -97.5 -37
s-33.5 -59.334 -33.5 -104.001v-250c0 -41.333 9.66699 -74 29 -98s47 -37.667 83 -41v-49c0 -17.333 -8.33301 -26 -25 -26h-16v-37h19c40.667 0 61 20.333 61 61v51c36 3.33301 63.5 17 82.5 41s28.5 56.667 28.5 98z" />
    <glyph glyph-name="egrave" unicode="&#xe8;" horiz-adv-x="328" 
d="M206 567l-87 132h-102l123 -132h66zM302 132v34h-85v-29c0 -23.333 -4.66699 -40.5 -14 -51.5s-22 -16.5 -38 -16.5s-28.833 5.5 -38.5 16.5s-14.5 28.167 -14.5 51.5v97h190v149c0 44.667 -12.167 79.167 -36.5 103.5s-58.166 36.5 -101.499 36.5
s-77 -12.167 -101 -36.5s-36 -58.833 -36 -103.5v-251c0 -44.667 12.167 -79.167 36.5 -103.5s58.166 -36.5 101.499 -36.5s77 12.167 101 36.5s36 58.833 36 103.5zM216 302h-104v76c0 23.333 4.66699 40.5 14 51.5s22 16.5 38 16.5s28.667 -5.5 38 -16.5
s14 -28.167 14 -51.5v-76z" />
    <glyph glyph-name="eacute" unicode="&#xe9;" horiz-adv-x="328" 
d="M326 700h-102l-87 -132h70zM302 132v34h-85v-29c0 -23.333 -4.66699 -40.5 -14 -51.5s-22 -16.5 -38 -16.5s-28.833 5.5 -38.5 16.5s-14.5 28.167 -14.5 51.5v97h190v149c0 44.667 -12.167 79.167 -36.5 103.5s-58.166 36.5 -101.499 36.5s-77 -12.167 -101 -36.5
s-36 -58.833 -36 -103.5v-251c0 -44.667 12.167 -79.167 36.5 -103.5s58.166 -36.5 101.499 -36.5s77 12.167 101 36.5s36 58.833 36 103.5zM216 302h-104v76c0 23.333 4.66699 40.5 14 51.5s22 16.5 38 16.5s28.667 -5.5 38 -16.5s14 -28.167 14 -51.5v-76z" />
    <glyph glyph-name="ecircumflex" unicode="&#xea;" horiz-adv-x="328" 
d="M271 568l-72 127h-58l-71 -127h64l36 75l36 -75h65zM302 132v34h-85v-29c0 -23.333 -4.66699 -40.5 -14 -51.5s-22 -16.5 -38 -16.5s-28.833 5.5 -38.5 16.5s-14.5 28.167 -14.5 51.5v97h190v149c0 44.667 -12.167 79.167 -36.5 103.5s-58.166 36.5 -101.499 36.5
s-77 -12.167 -101 -36.5s-36 -58.833 -36 -103.5v-251c0 -44.667 12.167 -79.167 36.5 -103.5s58.166 -36.5 101.499 -36.5s77 12.167 101 36.5s36 58.833 36 103.5zM216 302h-104v76c0 23.333 4.66699 40.5 14 51.5s22 16.5 38 16.5s28.667 -5.5 38 -16.5
s14 -28.167 14 -51.5v-76z" />
    <glyph glyph-name="edieresis" unicode="&#xeb;" horiz-adv-x="328" 
d="M276 580v90h-81v-90h81zM145 580v90h-81v-90h81zM302 132v34h-85v-29c0 -23.333 -4.66699 -40.5 -14 -51.5s-22 -16.5 -38 -16.5s-28.833 5.5 -38.5 16.5s-14.5 28.167 -14.5 51.5v97h190v149c0 44.667 -12.167 79.167 -36.5 103.5s-58.166 36.5 -101.499 36.5
s-77 -12.167 -101 -36.5s-36 -58.833 -36 -103.5v-251c0 -44.667 12.167 -79.167 36.5 -103.5s58.166 -36.5 101.499 -36.5s77 12.167 101 36.5s36 58.833 36 103.5zM216 302h-104v76c0 23.333 4.66699 40.5 14 51.5s22 16.5 38 16.5s28.667 -5.5 38 -16.5
s14 -28.167 14 -51.5v-76z" />
    <glyph glyph-name="igrave" unicode="&#xec;" horiz-adv-x="157" 
d="M127 567l-87 132h-102l123 -132h66zM121 0v515h-85v-515h85z" />
    <glyph glyph-name="iacute" unicode="&#xed;" horiz-adv-x="157" 
d="M238 700h-102l-87 -132h70zM121 0v515h-85v-515h85z" />
    <glyph glyph-name="icircumflex" unicode="&#xee;" horiz-adv-x="157" 
d="M182 568l-72 127h-58l-71 -127h64l36 75l36 -75h65zM121 0v515h-85v-515h85z" />
    <glyph glyph-name="idieresis" unicode="&#xef;" horiz-adv-x="157" 
d="M189 580v90h-81v-90h81zM58 580v90h-81v-90h81zM121 0v515h-85v-515h85z" />
    <glyph glyph-name="eth" unicode="&#xf0;" horiz-adv-x="337" 
d="M211 562c2.66699 -13.333 4.83398 -26.5 6.50098 -39.5s2.83398 -26.167 3.50098 -39.5c-4.66699 11.333 -14.167 20.833 -28.5 28.5s-28.833 11.5 -43.5 11.5c-40.667 0 -70.667 -12 -90 -36s-29 -58.667 -29 -104v-251c0 -44.667 12.167 -79.167 36.5 -103.5
s58.166 -36.5 101.499 -36.5s77.166 12.167 101.499 36.5s36.5 58.833 36.5 103.5v322c0 55.333 -6 105.5 -18 150.5s-31 88.167 -57 129.5l-79 -40c7.33301 -10 14 -20.333 20 -31s11.667 -21.667 17 -33h-102v-68h124zM221 137c0 -23.333 -4.83301 -40.333 -14.5 -51
s-22.5 -16 -38.5 -16s-28.833 5.33301 -38.5 16s-14.5 27.667 -14.5 51v241c0 23.333 4.83301 40.5 14.5 51.5s22.5 16.5 38.5 16.5s28.833 -5.5 38.5 -16.5s14.5 -28.167 14.5 -51.5v-241z" />
    <glyph glyph-name="ntilde" unicode="&#xf1;" horiz-adv-x="337" 
d="M291 674l-45.999 0.000976562c0 -12 -2.83301 -22.167 -8.5 -30.5s-12.5 -12.5 -20.5 -12.5c-6 0 -11.667 2 -17 6s-11 8.5 -17 13.5s-12.5 9.5 -19.5 13.5s-14.833 6 -23.5 6c-25.333 0 -45.333 -9.66699 -60 -29s-21.334 -44 -20.001 -74h46
c0 11.333 2.83301 21.166 8.5 29.499s12.5 12.5 20.5 12.5c6 0 11.667 -2 17 -6l17 -13c6 -4.66699 12.5 -9 19.5 -13s14.833 -6 23.5 -6c26 0 46.167 9.83301 60.5 29.5s20.833 44.167 19.5 73.5zM304.001 0.000976562l0.000976562 383c0 45.333 -8.83301 80 -26.5 104
s-46.834 36 -87.501 36c-14.667 0 -29.167 -3.83301 -43.5 -11.5s-23.833 -17.167 -28.5 -28.5v32h-82v-515h85v378c0 23.333 4.33301 40.5 13 51.5s20.667 16.5 36 16.5c32.667 0 49 -22.667 49 -68v-378h85z" />
    <glyph glyph-name="ograve" unicode="&#xf2;" horiz-adv-x="330" 
d="M207 567l-87 132h-102l123 -132h66zM303 132v251c0 44.667 -12.167 79.167 -36.5 103.5s-58.166 36.5 -101.499 36.5s-77.166 -12.167 -101.499 -36.5s-36.5 -58.833 -36.5 -103.5v-251c0 -44.667 12.167 -79.167 36.5 -103.5s58.166 -36.5 101.499 -36.5
s77.166 12.167 101.499 36.5s36.5 58.833 36.5 103.5zM218 137c0 -23.333 -4.83301 -40.5 -14.5 -51.5s-22.5 -16.5 -38.5 -16.5s-28.833 5.5 -38.5 16.5s-14.5 28.167 -14.5 51.5v241c0 23.333 4.83301 40.5 14.5 51.5s22.5 16.5 38.5 16.5s28.833 -5.5 38.5 -16.5
s14.5 -28.167 14.5 -51.5v-241z" />
    <glyph glyph-name="oacute" unicode="&#xf3;" horiz-adv-x="330" 
d="M328 700h-102l-87 -132h70zM303 132v251c0 44.667 -12.167 79.167 -36.5 103.5s-58.166 36.5 -101.499 36.5s-77.166 -12.167 -101.499 -36.5s-36.5 -58.833 -36.5 -103.5v-251c0 -44.667 12.167 -79.167 36.5 -103.5s58.166 -36.5 101.499 -36.5
s77.166 12.167 101.499 36.5s36.5 58.833 36.5 103.5zM218 137c0 -23.333 -4.83301 -40.5 -14.5 -51.5s-22.5 -16.5 -38.5 -16.5s-28.833 5.5 -38.5 16.5s-14.5 28.167 -14.5 51.5v241c0 23.333 4.83301 40.5 14.5 51.5s22.5 16.5 38.5 16.5s28.833 -5.5 38.5 -16.5
s14.5 -28.167 14.5 -51.5v-241z" />
    <glyph glyph-name="ocircumflex" unicode="&#xf4;" horiz-adv-x="330" 
d="M268 568l-72 127h-58l-71 -127h64l36 75l36 -75h65zM303 132v251c0 44.667 -12.167 79.167 -36.5 103.5s-58.166 36.5 -101.499 36.5s-77.166 -12.167 -101.499 -36.5s-36.5 -58.833 -36.5 -103.5v-251c0 -44.667 12.167 -79.167 36.5 -103.5s58.166 -36.5 101.499 -36.5
s77.166 12.167 101.499 36.5s36.5 58.833 36.5 103.5zM218 137c0 -23.333 -4.83301 -40.5 -14.5 -51.5s-22.5 -16.5 -38.5 -16.5s-28.833 5.5 -38.5 16.5s-14.5 28.167 -14.5 51.5v241c0 23.333 4.83301 40.5 14.5 51.5s22.5 16.5 38.5 16.5s28.833 -5.5 38.5 -16.5
s14.5 -28.167 14.5 -51.5v-241z" />
    <glyph glyph-name="otilde" unicode="&#xf5;" horiz-adv-x="330" 
d="M287 674l-45.999 0.000976562c0 -12 -2.83301 -22.167 -8.5 -30.5s-12.5 -12.5 -20.5 -12.5c-6 0 -11.667 2 -17 6s-11 8.5 -17 13.5s-12.5 9.5 -19.5 13.5s-14.833 6 -23.5 6c-25.333 0 -45.333 -9.66699 -60 -29s-21.334 -44 -20.001 -74h46
c0 11.333 2.83301 21.166 8.5 29.499s12.5 12.5 20.5 12.5c6 0 11.667 -2 17 -6l17 -13c6 -4.66699 12.5 -9 19.5 -13s14.833 -6 23.5 -6c26 0 46.167 9.83301 60.5 29.5s20.833 44.167 19.5 73.5zM303.001 132.001v251c0 44.667 -12.167 79.167 -36.5 103.5
s-58.166 36.5 -101.499 36.5s-77.166 -12.167 -101.499 -36.5s-36.5 -58.833 -36.5 -103.5v-251c0 -44.667 12.167 -79.167 36.5 -103.5s58.166 -36.5 101.499 -36.5s77.166 12.167 101.499 36.5s36.5 58.833 36.5 103.5zM218.001 137.001
c0 -23.333 -4.83301 -40.5 -14.5 -51.5s-22.5 -16.5 -38.5 -16.5s-28.833 5.5 -38.5 16.5s-14.5 28.167 -14.5 51.5v241c0 23.333 4.83301 40.5 14.5 51.5s22.5 16.5 38.5 16.5s28.833 -5.5 38.5 -16.5s14.5 -28.167 14.5 -51.5v-241z" />
    <glyph glyph-name="odieresis" unicode="&#xf6;" horiz-adv-x="330" 
d="M274 580v90h-81v-90h81zM143 580v90h-81v-90h81zM303 132v251c0 44.667 -12.167 79.167 -36.5 103.5s-58.166 36.5 -101.499 36.5s-77.166 -12.167 -101.499 -36.5s-36.5 -58.833 -36.5 -103.5v-251c0 -44.667 12.167 -79.167 36.5 -103.5s58.166 -36.5 101.499 -36.5
s77.166 12.167 101.499 36.5s36.5 58.833 36.5 103.5zM218 137c0 -23.333 -4.83301 -40.5 -14.5 -51.5s-22.5 -16.5 -38.5 -16.5s-28.833 5.5 -38.5 16.5s-14.5 28.167 -14.5 51.5v241c0 23.333 4.83301 40.5 14.5 51.5s22.5 16.5 38.5 16.5s28.833 -5.5 38.5 -16.5
s14.5 -28.167 14.5 -51.5v-241z" />
    <glyph glyph-name="oslash" unicode="&#xf8;" horiz-adv-x="329" 
d="M303 132v251c0 44.667 -12.167 79.167 -36.5 103.5s-58.166 36.5 -101.499 36.5s-77.166 -12.167 -101.499 -36.5s-36.5 -58.833 -36.5 -103.5v-251c0 -44.667 12.167 -79.167 36.5 -103.5s58.166 -36.5 101.499 -36.5s77.166 12.167 101.499 36.5
s36.5 58.833 36.5 103.5zM218 367l-106 -156v167c0 23.333 4.83301 40.5 14.5 51.5s22.5 16.5 38.5 16.5s28.833 -5.5 38.5 -16.5s14.5 -28.167 14.5 -51.5v-11zM218 137c0 -23.333 -4.83301 -40.5 -14.5 -51.5s-22.5 -16.5 -38.5 -16.5s-28.833 5.5 -38.5 16.5
s-14.5 28.167 -14.5 51.5v12l106 153v-165z" />
    <glyph glyph-name="ugrave" unicode="&#xf9;" horiz-adv-x="337" 
d="M211 567l-87 132h-102l123 -132h66zM301 0l-0.000976562 515h-85v-378c0 -23.333 -4.33301 -40.5 -13 -51.5s-20.667 -16.5 -36 -16.5c-32.667 0 -49 22.667 -49 68v378h-85v-383c0 -45.333 8.83301 -80 26.5 -104s46.834 -36 87.501 -36
c14.667 0 29.167 3.83301 43.5 11.5s23.833 17.167 28.5 28.5v-32h82z" />
    <glyph glyph-name="uacute" unicode="&#xfa;" horiz-adv-x="337" 
d="M328 700h-102l-87 -132h70zM301 0l-0.000976562 515h-85v-378c0 -23.333 -4.33301 -40.5 -13 -51.5s-20.667 -16.5 -36 -16.5c-32.667 0 -49 22.667 -49 68v378h-85v-383c0 -45.333 8.83301 -80 26.5 -104s46.834 -36 87.501 -36c14.667 0 29.167 3.83301 43.5 11.5
s23.833 17.167 28.5 28.5v-32h82z" />
    <glyph glyph-name="ucircumflex" unicode="&#xfb;" horiz-adv-x="337" 
d="M270 568l-72 127h-58l-71 -127h64l36 75l36 -75h65zM301 0l-0.000976562 515h-85v-378c0 -23.333 -4.33301 -40.5 -13 -51.5s-20.667 -16.5 -36 -16.5c-32.667 0 -49 22.667 -49 68v378h-85v-383c0 -45.333 8.83301 -80 26.5 -104s46.834 -36 87.501 -36
c14.667 0 29.167 3.83301 43.5 11.5s23.833 17.167 28.5 28.5v-32h82z" />
    <glyph glyph-name="udieresis" unicode="&#xfc;" horiz-adv-x="337" 
d="M273 580v90h-81v-90h81zM142 580v90h-81v-90h81zM301 0l-0.000976562 515h-85v-378c0 -23.333 -4.33301 -40.5 -13 -51.5s-20.667 -16.5 -36 -16.5c-32.667 0 -49 22.667 -49 68v378h-85v-383c0 -45.333 8.83301 -80 26.5 -104s46.834 -36 87.501 -36
c14.667 0 29.167 3.83301 43.5 11.5s23.833 17.167 28.5 28.5v-32h82z" />
    <glyph glyph-name="yacute" unicode="&#xfd;" horiz-adv-x="294" 
d="M312 699h-102l-87 -132h70zM293 515l-90.0039 0.000976562l-40 -283l-4.5 -39c-1.66699 -14.667 -3.16699 -28.5 -4.5 -41.5s-2.33301 -24 -3 -33l-1 -13.5h-2l-1 13c-0.666992 8.66699 -1.66699 19.5 -3 32.5s-2.66602 26.833 -3.99902 41.5s-3 28 -5 40l-40 283h-90
l102 -515l-9 -45c-3.33301 -17.333 -9.16602 -32.333 -17.499 -45s-22.166 -19 -41.499 -19c-4 0 -8.16699 0.166992 -12.5 0.5s-9.16602 1.16602 -14.499 2.49902v-81c6 -1.33301 11.5 -2.5 16.5 -3.5s11.5 -1.5 19.5 -1.5c37.333 0 66.833 12.333 88.5 37
s36.167 55.667 43.5 93z" />
    <glyph glyph-name="thorn" unicode="&#xfe;" horiz-adv-x="336" 
d="M312 132v251c0 45.333 -9.66699 80 -29 104s-49.333 36 -90 36c-14.667 0 -29.167 -3.83301 -43.5 -11.5s-23.833 -17.167 -28.5 -28.5v209h-85v-882h85v222c4.66699 -11.333 14.167 -20.833 28.5 -28.5s28.833 -11.5 43.5 -11.5c40.667 0 70.667 12 90 36
s29 58.667 29 104zM227 137c0 -23.333 -4.83301 -40.5 -14.5 -51.5s-22.5 -16.5 -38.5 -16.5s-28.833 5.5 -38.5 16.5s-14.5 28.167 -14.5 51.5v241c0 23.333 4.83301 40.5 14.5 51.5s22.5 16.5 38.5 16.5s28.833 -5.5 38.5 -16.5s14.5 -28.167 14.5 -51.5v-241z" />
    <glyph glyph-name="ydieresis" unicode="&#xff;" horiz-adv-x="294" 
d="M254 580v90h-81v-90h81zM123 580v90h-81v-90h81zM291 515l-90.0039 0.000976562l-40 -283l-4.5 -39c-1.66699 -14.667 -3.16699 -28.5 -4.5 -41.5s-2.33301 -24 -3 -33l-1 -13.5h-2l-1 13c-0.666992 8.66699 -1.66699 19.5 -3 32.5s-2.66602 26.833 -3.99902 41.5
s-3 28 -5 40l-40 283h-90l102 -515l-9 -45c-3.33301 -17.333 -9.16602 -32.333 -17.499 -45s-22.166 -19 -41.499 -19c-4 0 -8.16699 0.166992 -12.5 0.5s-9.16602 1.16602 -14.499 2.49902v-81c6 -1.33301 11.5 -2.5 16.5 -3.5s11.5 -1.5 19.5 -1.5
c37.333 0 66.833 12.333 88.5 37s36.167 55.667 43.5 93z" />
    <glyph glyph-name="dotlessi" unicode="&#x131;" horiz-adv-x="157" 
d="M121 0v515h-85v-515h85z" />
    <glyph glyph-name="Lslash" unicode="&#x141;" horiz-adv-x="279" 
d="M264 0v79h-127v233l71 43v67l-71 -44v274h-87v-326l-36 -22v-67l36 22v-259h214z" />
    <glyph glyph-name="lslash" unicode="&#x142;" horiz-adv-x="201" 
d="M193 369v67l-51 -31v287h-85v-338l-51 -30v-67l51 31v-288h85v339z" />
    <glyph glyph-name="OE" unicode="&#x152;" horiz-adv-x="459" 
d="M443 0v77h-127v219h112v80h-112v197h127v79h-268c-49.333 0 -84.833 -13 -106.5 -39s-32.5 -60.333 -32.5 -103v-368c0 -43.333 10.833 -77.833 32.5 -103.5s57.167 -38.5 106.5 -38.5h268zM230 77h-55c-18 0 -31.333 6 -40 18s-13 28.333 -13 49v362
c0 20.667 4.33301 37 13 49s22 18 40 18h55v-496z" />
    <glyph glyph-name="oe" unicode="&#x153;" horiz-adv-x="519" 
d="M493 132l-0.00195312 34h-85v-29c0 -23.333 -4.66699 -40.5 -14 -51.5s-22 -16.5 -38 -16.5s-28.833 5.5 -38.5 16.5s-14.5 28.167 -14.5 51.5v97h190v149c0 44.667 -12.167 79.167 -36.5 103.5s-58.166 36.5 -101.499 36.5c-19.333 0 -37.5 -3.5 -54.5 -10.5
s-30.5 -17.167 -40.5 -30.5c-10.667 13.333 -24.334 23.5 -41.001 30.5s-34.667 10.5 -54 10.5c-43.333 0 -77.166 -12.167 -101.499 -36.5s-36.5 -58.833 -36.5 -103.5v-251c0 -44.667 12.333 -79.167 37 -103.5s58.667 -36.5 102 -36.5c19.333 0 37.333 3.5 54 10.5
s30.334 17.167 41.001 30.5c10 -13.333 23.5 -23.5 40.5 -30.5s35.167 -10.5 54.5 -10.5c43.333 0 77 12.167 101 36.5s36 58.833 36 103.5zM406.998 302h-104v76c0 23.333 4.66699 40.5 14 51.5s22 16.5 38 16.5s28.667 -5.5 38 -16.5s14 -28.167 14 -51.5v-76z
M217.998 137c0 -23.333 -4.83301 -40.5 -14.5 -51.5s-22.5 -16.5 -38.5 -16.5s-28.833 5.5 -38.5 16.5s-14.5 28.167 -14.5 51.5v241c0 23.333 4.83301 40.5 14.5 51.5s22.5 16.5 38.5 16.5s28.833 -5.5 38.5 -16.5s14.5 -28.167 14.5 -51.5v-241z" />
    <glyph glyph-name="Scaron" unicode="&#x160;" horiz-adv-x="327" 
d="M296 833h-69l-49 -81l-49 81h-68l85 -127h64zM305 145c0 32 -4.16992 59.668 -12.5029 83.001s-23.833 47.333 -46.5 72l-97 105c-16 17.333 -26.667 33.5 -32 48.5s-8 32.833 -8 53.5c0 22.667 4.5 40.834 13.5 54.501s22.5 20.5 40.5 20.5
c16 0 28.833 -5.33301 38.5 -16s14.5 -27.667 14.5 -51v-69h85v74c0 44.667 -12 79.167 -36 103.5s-58 36.5 -102 36.5c-24 0 -44.833 -3.83301 -62.5 -11.5s-32.167 -18.334 -43.5 -32.001s-19.666 -29.834 -24.999 -48.501s-8 -39 -8 -61
c0 -16 0.833008 -30.833 2.5 -44.5s4.83398 -26.667 9.50098 -39s10.834 -24.333 18.501 -36s17.167 -23.5 28.5 -35.5l97 -105c16 -17.333 26.667 -33.5 32 -48.5s8 -32.833 8 -53.5c0 -50 -20 -75 -60 -75c-15.333 0 -28.333 5.33301 -39 16s-16 27.667 -16 51v69h-85v-74
c0 -46 12.833 -80.833 38.5 -104.5s59.5 -35.5 101.5 -35.5c48.667 0 85 14.5 109 43.5s36 65.5 36 109.5z" />
    <glyph glyph-name="scaron" unicode="&#x161;" horiz-adv-x="305" 
d="M272 694h-69l-49 -81l-49 81h-68l85 -127h64zM290 129c0 32 -6.16602 57.5 -18.499 76.5s-29.833 37.5 -52.5 55.5l-79 63c-13.333 10.667 -22.166 20.167 -26.499 28.5s-6.5 19.5 -6.5 33.5c0 19.333 3.66699 34.333 11 45s18.666 16 33.999 16
s26.833 -6.16699 34.5 -18.5s11.5 -29.166 11.5 -50.499v-30h85v35c0 44.667 -11.333 79.167 -34 103.5s-55 36.5 -97 36.5s-74 -12 -96 -36s-33 -57.667 -33 -101c0 -32 6.16699 -57.167 18.5 -75.5s29.833 -36.5 52.5 -54.5l79 -63
c13.333 -10.667 22.166 -20.5 26.499 -29.5s6.5 -20.5 6.5 -34.5c0 -20.667 -5.16699 -36 -15.5 -46s-23.166 -15 -38.499 -15c-16 0 -28.833 5.66699 -38.5 17s-14.5 28.666 -14.5 51.999v29h-85v-34c0 -44.667 12.167 -79.167 36.5 -103.5s58.166 -36.5 101.499 -36.5
c42 0 75.5 12 100.5 36s37.5 57.667 37.5 101z" />
    <glyph glyph-name="Ydieresis" unicode="&#x178;" horiz-adv-x="312" 
d="M259 714v90h-81v-90h81zM128 714v90h-81v-90h81zM314 652h-90.002l-49 -214c-3.33301 -14.667 -6.16602 -29.5 -8.49902 -44.5l-5.5 -35c-1.33301 -8.33301 -2 -13.166 -2 -14.499h-2c0 1.33301 -0.5 6.16602 -1.5 14.499s-2.66699 20 -5 35
s-5.16602 29.833 -8.49902 44.5l-50 214h-90l112 -403v-249h86v249z" />
    <glyph glyph-name="florin" unicode="&#x192;" horiz-adv-x="264" 
d="M244 364v73.0039h-73v61c0 28 6 47.667 18 59s30.333 16 55 14v83c-28 2 -51.833 -0.333008 -71.5 -7s-35.834 -16.834 -48.501 -30.501s-22 -30.334 -28 -50.001s-9 -40.834 -9 -63.501v-66h-53v-73h53v-211c0 -28.667 -6 -48.334 -18 -59.001
c-12 -11.333 -30.333 -16 -55 -14v-83c28 -2 51.833 0.333008 71.5 7s35.834 16.834 48.501 30.501s22 30.167 28 49.5s9 40.666 9 63.999v216h73z" />
    <glyph glyph-name="circumflex" unicode="&#x2c6;" horiz-adv-x="417" 
d="M309 603l-72 127h-58l-71 -127h64l36 75l36 -75h65z" />
    <glyph glyph-name="caron" unicode="&#x2c7;" horiz-adv-x="417" 
d="M326 730h-69l-49 -81l-49 81h-68l85 -127h64z" />
    <glyph glyph-name="breve" unicode="&#x2d8;" horiz-adv-x="388" 
d="M346 720h-43.001c-5.33301 -22.667 -16.333 -40.334 -33 -53.001s-42 -19 -76 -19c-28 0 -50.667 6.33301 -68 19s-29.666 30.334 -36.999 53.001h-47c1.33301 -18.667 5.83301 -35.834 13.5 -51.501s18.167 -29.334 31.5 -41.001s29 -20.834 47 -27.501s38 -10 60 -10
s42 3.33301 60 10s33.667 15.834 47 27.501s23.833 25.334 31.5 41.001s12.167 32.834 13.5 51.501z" />
    <glyph glyph-name="dotaccent" unicode="&#x2d9;" horiz-adv-x="175" 
d="M133 594v100h-91v-100h91z" />
    <glyph glyph-name="ring" unicode="&#x2da;" horiz-adv-x="275" 
d="M224 649c0 24.667 -8.5 45.5 -25.5 62.5s-37.833 25.5 -62.5 25.5s-45.334 -8.5 -62.001 -25.5s-25 -37.833 -25 -62.5c0 -24 8.33301 -44.5 25 -61.5s37.334 -25.5 62.001 -25.5s45.5 8.5 62.5 25.5s25.5 37.5 25.5 61.5zM180 649c0 -12 -4.5 -22.5 -13.5 -31.5
s-19.5 -13.5 -31.5 -13.5s-22.5 4.5 -31.5 13.5s-13.5 19.5 -13.5 31.5c0 12.667 4.5 23.5 13.5 32.5s19.5 13.5 31.5 13.5s22.5 -4.5 31.5 -13.5s13.5 -19.833 13.5 -32.5z" />
    <glyph glyph-name="ogonek" unicode="&#x2db;" horiz-adv-x="333" 
d="M216 -119v37h-16c-16.667 0 -25 8.66699 -25 26v56h-39v-58c0 -40.667 20.333 -61 61 -61h19z" />
    <glyph glyph-name="tilde" unicode="&#x2dc;" horiz-adv-x="375" 
d="M325 713l-45.999 0.000976562c0 -12 -2.83301 -22.167 -8.5 -30.5s-12.5 -12.5 -20.5 -12.5c-6 0 -11.667 2 -17 6s-11 8.5 -17 13.5s-12.5 9.5 -19.5 13.5s-14.833 6 -23.5 6c-25.333 0 -45.333 -9.66699 -60 -29s-21.334 -44 -20.001 -74h46
c0 11.333 2.83301 21.166 8.5 29.499s12.5 12.5 20.5 12.5c6 0 11.667 -2 17 -6l17 -13c6 -4.66699 12.5 -9 19.5 -13s14.833 -6 23.5 -6c26 0 46.167 9.83301 60.5 29.5s20.833 44.167 19.5 73.5z" />
    <glyph glyph-name="hungarumlaut" unicode="&#x2dd;" horiz-adv-x="416" 
d="M374 720h-104l-66 -136h67zM212 720h-104l-66 -136h67z" />
    <glyph glyph-name="Delta" unicode="&#x394;" 
d="M150 279v104h-100v-104h100z" />
    <glyph glyph-name="Omega" unicode="&#x3a9;" 
d="M150 279v104h-100v-104h100z" />
    <glyph glyph-name="pi" unicode="&#x3c0;" 
d="M150 279v104h-100v-104h100z" />
    <glyph glyph-name="endash" unicode="&#x2013;" horiz-adv-x="294" 
d="M266 235v82h-238v-82h238z" />
    <glyph glyph-name="emdash" unicode="&#x2014;" horiz-adv-x="373" 
d="M345 235v82h-317v-82h317z" />
    <glyph glyph-name="quoteleft" unicode="&#x2018;" horiz-adv-x="179" 
d="M142 475l-0.000976562 103h-54v13c0 35.333 15.667 55.333 47 60v45c-11.333 -1.33301 -22.666 -4.33301 -33.999 -9s-21.333 -11.167 -30 -19.5s-15.667 -19 -21 -32s-8 -27.833 -8 -44.5v-116h100z" />
    <glyph glyph-name="quoteright" unicode="&#x2019;" horiz-adv-x="179" 
d="M138 576l0.000976562 116h-100v-103h54v-13c0 -35.333 -15.667 -55.333 -47 -60v-45c11.333 0.666992 22.666 3.5 33.999 8.5s21.333 11.667 30 20s15.667 18.833 21 31.5s8 27.667 8 45z" />
    <glyph glyph-name="quotesinglbase" unicode="&#x201a;" horiz-adv-x="168" 
d="M134 -13l0.000976562 116h-100v-103h54v-13c0 -35.333 -15.667 -55.333 -47 -60v-45c11.333 0.666992 22.666 3.5 33.999 8.5s21.333 11.667 30 20s15.667 18.833 21 31.5s8 27.667 8 45z" />
    <glyph glyph-name="quotedblleft" unicode="&#x201c;" horiz-adv-x="325" 
d="M288 475l-0.000976562 103h-54v13c0 35.333 15.667 55.333 47 60v45c-11.333 -1.33301 -22.666 -4.33301 -33.999 -9s-21.333 -11.167 -30 -19.5s-15.667 -19 -21 -32s-8 -27.833 -8 -44.5v-116h100zM141.999 475l-0.000976562 103h-54v13c0 35.333 15.667 55.333 47 60
v45c-11.333 -1.33301 -22.666 -4.33301 -33.999 -9s-21.333 -11.167 -30 -19.5s-15.667 -19 -21 -32s-8 -27.833 -8 -44.5v-116h100z" />
    <glyph glyph-name="quotedblright" unicode="&#x201d;" horiz-adv-x="325" 
d="M284 576l0.000976562 116h-100v-103h54v-13c0 -35.333 -15.667 -55.333 -47 -60v-45c11.333 0.666992 22.666 3.5 33.999 8.5s21.333 11.667 30 20s15.667 18.833 21 31.5s8 27.667 8 45zM138.001 576l0.000976562 116h-100v-103h54v-13
c0 -35.333 -15.667 -55.333 -47 -60v-45c11.333 0.666992 22.666 3.5 33.999 8.5s21.333 11.667 30 20s15.667 18.833 21 31.5s8 27.667 8 45z" />
    <glyph glyph-name="quotedblbase" unicode="&#x201e;" horiz-adv-x="324" 
d="M289 -13l0.000976562 116h-100v-103h54v-13c0 -35.333 -15.667 -55.333 -47 -60v-45c11.333 0.666992 22.666 3.5 33.999 8.5s21.333 11.667 30 20s15.667 18.833 21 31.5s8 27.667 8 45zM134.001 -13l0.000976562 116h-100v-103h54v-13
c0 -35.333 -15.667 -55.333 -47 -60v-45c11.333 0.666992 22.666 3.5 33.999 8.5s21.333 11.667 30 20s15.667 18.833 21 31.5s8 27.667 8 45z" />
    <glyph glyph-name="dagger" unicode="&#x2020;" horiz-adv-x="312" 
d="M282 476v66h-92v110h-68v-110h-92v-66h92v-256h68v256h92z" />
    <glyph glyph-name="daggerdbl" unicode="&#x2021;" horiz-adv-x="312" 
d="M282 328v66h-92v82h92v66h-92v110h-68v-110h-92v-66h92v-82h-92v-66h92v-108h68v108h92z" />
    <glyph glyph-name="bullet" unicode="&#x2022;" horiz-adv-x="253" 
d="M203 334c0 21.333 -7.33301 39.333 -22 54s-32.667 22 -54 22s-39.5 -7.33301 -54.5 -22s-22.5 -32.667 -22.5 -54s7.5 -39.5 22.5 -54.5s33.167 -22.5 54.5 -22.5s39.333 7.5 54 22.5s22 33.167 22 54.5z" />
    <glyph glyph-name="ellipsis" unicode="&#x2026;" horiz-adv-x="544" 
d="M510 0v103h-100v-103h100zM322 0v103h-100v-103h100zM134 0v103h-100v-103h100z" />
    <glyph glyph-name="perthousand" unicode="&#x2030;" horiz-adv-x="824" 
d="M242 442v88c0 22.667 -1.83301 41.5 -5.5 56.5s-11.834 28.5 -24.501 40.5c-8.66699 8.66699 -19.667 15.5 -33 20.5s-27.666 7.5 -42.999 7.5s-29.833 -2.5 -43.5 -7.5s-24.834 -11.833 -33.501 -20.5c-12 -12 -20.167 -25.5 -24.5 -40.5s-6.5 -33.833 -6.5 -56.5v-88
c0 -22.667 2.16699 -41.5 6.5 -56.5s12.5 -28.5 24.5 -40.5c8.66699 -8.66699 19.834 -15.5 33.501 -20.5s28.167 -7.5 43.5 -7.5s29.666 2.5 42.999 7.5s24.333 11.833 33 20.5c12.667 12 20.834 25.5 24.501 40.5s5.5 33.833 5.5 56.5zM477 652h-71l-324 -652h71zM796 122
v88c0 22.667 -1.83301 41.5 -5.5 56.5s-11.834 28.5 -24.501 40.5c-8.66699 8.66699 -19.834 15.5 -33.501 20.5s-28.167 7.5 -43.5 7.5s-29.666 -2.5 -42.999 -7.5s-24.333 -11.833 -33 -20.5c-12 -12 -20.167 -25.5 -24.5 -40.5s-6.5 -33.833 -6.5 -56.5v-88
c0 -22.667 2.16699 -41.5 6.5 -56.5s12.5 -28.5 24.5 -40.5c8.66699 -8.66699 19.667 -15.5 33 -20.5s27.666 -7.5 42.999 -7.5s29.833 2.5 43.5 7.5s24.834 11.833 33.501 20.5c12.667 12 20.834 25.5 24.501 40.5s5.5 33.833 5.5 56.5zM532 122v88
c0 22.667 -2 41.5 -6 56.5s-12.333 28.5 -25 40.5c-8.66699 8.66699 -19.667 15.5 -33 20.5s-27.666 7.5 -42.999 7.5s-29.666 -2.5 -42.999 -7.5s-24.333 -11.833 -33 -20.5c-12 -12 -20.167 -25.5 -24.5 -40.5s-6.5 -33.833 -6.5 -56.5v-88
c0 -22.667 2.16699 -41.5 6.5 -56.5s12.5 -28.5 24.5 -40.5c8.66699 -8.66699 19.667 -15.5 33 -20.5s27.666 -7.5 42.999 -7.5s29.666 2.5 42.999 7.5s24.333 11.833 33 20.5c12.667 12 21 25.5 25 40.5s6 33.833 6 56.5zM169 428c0 -16.667 -2.83301 -28.5 -8.5 -35.5
s-13.834 -10.5 -24.501 -10.5s-19 3.5 -25 10.5s-9 18.833 -9 35.5v116c0 16.667 3 28.5 9 35.5s14.333 10.5 25 10.5s18.834 -3.5 24.501 -10.5s8.5 -18.833 8.5 -35.5v-116zM723 108c0 -16.667 -3 -28.5 -9 -35.5s-14.333 -10.5 -25 -10.5s-18.834 3.5 -24.501 10.5
s-8.5 18.833 -8.5 35.5v116c0 16.667 2.83301 28.5 8.5 35.5s13.834 10.5 24.501 10.5s19 -3.5 25 -10.5s9 -18.833 9 -35.5v-116zM459 108c0 -16.667 -3 -28.5 -9 -35.5s-14.333 -10.5 -25 -10.5s-19 3.5 -25 10.5s-9 18.833 -9 35.5v116c0 16.667 3 28.5 9 35.5
s14.333 10.5 25 10.5s19 -3.5 25 -10.5s9 -18.833 9 -35.5v-116z" />
    <glyph glyph-name="guilsinglleft" unicode="&#x2039;" horiz-adv-x="194" 
d="M172 130v88l-100 82l100 80v89l-158 -136v-67z" />
    <glyph glyph-name="guilsinglright" unicode="&#x203a;" horiz-adv-x="195" 
d="M181 266v67l-159 136v-89l100 -80l-100 -82v-88z" />
    <glyph glyph-name="Euro" unicode="&#x20ac;" horiz-adv-x="365" 
d="M337 133v33h-85v-29c0 -23.333 -4.5 -40.333 -13.5 -51s-21.5 -16 -37.5 -16s-28.667 5.33301 -38 16s-14 27.667 -14 51v97h145v57h-145v73h145v57h-145v94c0 23.333 4.66699 40.333 14 51s22 16 38 16s28.5 -5.33301 37.5 -16s13.5 -27.667 13.5 -51v-29h85v33
c0 44.667 -11.833 79.334 -35.5 104.001s-57.167 37 -100.5 37s-77 -12.333 -101 -37s-36 -59.334 -36 -104.001v-98h-54v-57h54v-73h-54v-57h54v-101c0 -44.667 12 -79.334 36 -104.001s57.667 -37 101 -37s76.833 12.333 100.5 37s35.5 59.334 35.5 104.001z" />
    <glyph glyph-name="trademark" unicode="&#x2122;" horiz-adv-x="408" 
d="M375 376v276h-68l-28 -173c-0.666992 -3.33301 -1.16699 -8.16602 -1.5 -14.499s-0.833008 -11.833 -1.5 -16.5h-2c-0.666992 4.66699 -1.16699 10.167 -1.5 16.5s-0.833008 11.166 -1.5 14.499l-30 173h-67v-276h44v179c0 5.33301 -0.166992 10.666 -0.5 15.999l-0.5 8
h2l34 -203h43l35 203h2l-0.5 -8c-0.333008 -5.33301 -0.5 -10.666 -0.5 -15.999v-179h43zM154 610v42h-133v-42h41v-234h48v234h44z" />
    <glyph glyph-name="product" unicode="&#x220f;" 
d="M150 279v104h-100v-104h100z" />
    <glyph glyph-name="summation" unicode="&#x2211;" 
d="M150 279v104h-100v-104h100z" />
    <glyph glyph-name="fraction" unicode="&#x2215;" 
d="M150 279v104h-100v-104h100z" />
    <glyph glyph-name="radical" unicode="&#x221a;" 
d="M150 279v104h-100v-104h100z" />
    <glyph glyph-name="ffi" unicode="&#x221e;" horiz-adv-x="533" 
d="M231 434l0.000976562 -433.996h84v434h97v-434h85v515h-182v24c0 21.333 3.83301 38.666 11.5 51.999s23.167 20 46.5 20h124v81h-129c-47.333 0 -82 -13 -104 -39s-33 -62.333 -33 -109v-29h-104v23c0 28 6 47.667 18 59s30.333 16 55 14v83
c-28 2 -51.833 -0.333008 -71.5 -7s-35.834 -16.834 -48.501 -30.501s-22 -30.334 -28 -50.001s-9 -40.834 -9 -63.501v-28h-34v-81h34v-434h84v434h104z" />
    <glyph glyph-name="integral" unicode="&#x222b;" 
d="M150 279v104h-100v-104h100z" />
    <glyph glyph-name="approxequal" unicode="&#x2248;" 
d="M150 279v104h-100v-104h100z" />
    <glyph glyph-name="ff" unicode="&#x2260;" horiz-adv-x="376" 
d="M388 611l0.00195312 83.0059c-28 2 -51.833 -0.333008 -71.5 -7s-35.834 -16.834 -48.501 -30.501s-22 -30.334 -28 -50.001s-9 -40.834 -9 -63.501v-28h-104v23c0 28 6 47.667 18 59s30.333 16 55 14v83c-28 2 -51.833 -0.333008 -71.5 -7
s-35.834 -16.834 -48.501 -30.501s-22 -30.334 -28 -50.001s-9 -40.834 -9 -63.501v-28h-34v-81h34v-434h84v434h104v-434h84v434h68v81h-68v23c0 28 6 47.667 18 59s30.333 16 55 14z" />
    <glyph glyph-name="lessequal" unicode="&#x2264;" 
d="M150 279v104h-100v-104h100z" />
    <glyph glyph-name="greaterequal" unicode="&#x2265;" 
d="M150 279v104h-100v-104h100z" />
    <glyph glyph-name="lozenge" unicode="&#x25ca;" 
d="M150 279v104h-100v-104h100z" />
    <glyph glyph-name="apple" unicode="&#xf8ff;" horiz-adv-x="904" 
d="M863 347c0 52.667 -10 99.668 -30 141.001s-46.167 76.666 -78.5 105.999s-69 52.5 -110 69.5s-82.5 27.167 -124.5 30.5l-12 1v-695l12 1c42 3.33301 83.5 13.5 124.5 30.5s77.667 40 110 69s58.5 64.167 78.5 105.5s30 88.333 30 141zM479 0.000976562v125.002h-92
c-32.667 0 -62.167 5.83301 -88.5 17.5s-48.833 27.667 -67.5 48s-33 44 -43 71s-15 55.5 -15 85.5s5 58.5 15 85.5s24.333 50.667 43 71s41.167 36.333 67.5 48s55.833 17.5 88.5 17.5h92v125h-92c-52.667 0 -100.334 -9.33301 -143.001 -28s-79 -43.834 -109 -75.501
s-53.167 -68.5 -69.5 -110.5s-24.5 -86.333 -24.5 -133s8.16699 -91 24.5 -133s39.5 -78.833 69.5 -110.5s66.333 -56.834 109 -75.501s90.334 -28 143.001 -28h92zM761 557.003c-28 -17.333 -56.666 -31.333 -85.999 -42c-12.667 32.667 -27.834 61.667 -45.501 87
s-36.5 46 -56.5 62c36 -7.33301 70 -20 102 -38s60.667 -41 86 -69zM653.001 508.003c-18.667 -5.33301 -38.167 -9.66895 -58.5 -13.002s-41.166 -5.66602 -62.499 -6.99902v176c23.333 -13.333 45.666 -33.166 66.999 -59.499s39.333 -58.5 54 -96.5zM839.001 359
l-134.999 0.000976562c-0.666992 24 -2.83398 47.167 -6.50098 69.5s-8.5 43.5 -14.5 63.5c32 11.333 63 27 93 47c18.667 -24.667 33.5 -51.834 44.5 -81.501s17.167 -62.5 18.5 -98.5zM681.002 359.001h-149.002v106c44.667 2 87.334 8.66699 128.001 20
c6 -19.333 10.833 -39.333 14.5 -60s5.83398 -42.667 6.50098 -66zM681 336.001c-0.666992 -23.333 -2.83203 -45.5 -6.49902 -66.5s-8.5 -41.167 -14.5 -60.5c-38.667 12 -81.334 19 -128.001 21v106h149zM839.002 336.001c-1.33301 -36 -7.50098 -69 -18.501 -99
s-25.833 -57 -44.5 -81c-14.667 9.33301 -29.667 18 -45 26s-31.333 14.667 -48 20c6 20.667 10.833 42 14.5 64s5.83398 45.333 6.50098 70h135zM653.001 187.001c-14.667 -38 -32.667 -70.332 -54 -96.999s-43.666 -46.334 -66.999 -59.001v175
c21.333 -1.33301 42.166 -3.5 62.499 -6.5s39.833 -7.16699 58.5 -12.5zM761.001 138.002c-25.333 -28 -54.001 -51 -86.001 -69s-66 -30.667 -102 -38c20 16 38.833 36.667 56.5 62s32.834 54.333 45.501 87c29.333 -10.667 58 -24.667 86 -42z" />
    <glyph glyph-name="fi" unicode="&#xfb01;" horiz-adv-x="345" 
d="M309 0v515.001h-182v24c0 21.333 3.83301 38.666 11.5 51.999s23.167 20 46.5 20h124v81h-129c-47.333 0 -82 -13 -104 -39s-33 -62.333 -33 -109v-29h-34v-81h34v-434h84v434h97v-434h85z" />
    <glyph glyph-name="fl" unicode="&#xfb02;" horiz-adv-x="345" 
d="M309 0v692.001h-129c-47.333 0 -82 -13 -104 -39s-33 -62.333 -33 -109v-29h-34v-81h34v-434h84v434h68v81h-68v24c0 21.333 3.83301 38.666 11.5 51.999s23.167 20 46.5 20h39v-611h85z" />
    <glyph glyph-name=".null" horiz-adv-x="0" 
 />
    <glyph glyph-name="nonmarkingreturn" horiz-adv-x="160" 
 />
    </font>
</defs>
</svg>
